<svg width="16" height="16" viewBox="0 0 16 16" fill="none" xmlns="http://www.w3.org/2000/svg">
<path d="M5.16683 1.66667C5.16683 1.39053 4.94297 1.16667 4.66683 1.16667C4.39069 1.16667 4.16683 1.39053 4.16683 1.66667V2.71951C3.20728 2.79635 2.57734 2.98492 2.11454 3.44772C1.65175 3.91052 1.46317 4.54045 1.38633 5.50001H14.614C14.5372 4.54045 14.3486 3.91052 13.8858 3.44772C13.423 2.98492 12.793 2.79635 11.8335 2.71951V1.66667C11.8335 1.39053 11.6096 1.16667 11.3335 1.16667C11.0574 1.16667 10.8335 1.39053 10.8335 1.66667V2.67527C10.39 2.66667 9.89285 2.66667 9.3335 2.66667H6.66683C6.10747 2.66667 5.61034 2.66667 5.16683 2.67527V1.66667Z" fill="#FFB81C"/>
<path fill-rule="evenodd" clip-rule="evenodd" d="M1.3335 8.00001C1.3335 7.44065 1.3335 6.94352 1.3421 6.50001H14.6582C14.6668 6.94352 14.6668 7.44065 14.6668 8.00001V9.33334C14.6668 11.8475 14.6668 13.1046 13.8858 13.8856C13.1047 14.6667 11.8477 14.6667 9.3335 14.6667H6.66683C4.15267 14.6667 2.89559 14.6667 2.11454 13.8856C1.3335 13.1046 1.3335 11.8475 1.3335 9.33334V8.00001ZM11.3335 9.33334C11.7017 9.33334 12.0002 9.03486 12.0002 8.66667C12.0002 8.29848 11.7017 8.00001 11.3335 8.00001C10.9653 8.00001 10.6668 8.29848 10.6668 8.66667C10.6668 9.03486 10.9653 9.33334 11.3335 9.33334ZM11.3335 12C11.7017 12 12.0002 11.7015 12.0002 11.3333C12.0002 10.9651 11.7017 10.6667 11.3335 10.6667C10.9653 10.6667 10.6668 10.9651 10.6668 11.3333C10.6668 11.7015 10.9653 12 11.3335 12ZM8.66683 8.66667C8.66683 9.03486 8.36835 9.33334 8.00016 9.33334C7.63197 9.33334 7.3335 9.03486 7.3335 8.66667C7.3335 8.29848 7.63197 8.00001 8.00016 8.00001C8.36835 8.00001 8.66683 8.29848 8.66683 8.66667ZM8.66683 11.3333C8.66683 11.7015 8.36835 12 8.00016 12C7.63197 12 7.3335 11.7015 7.3335 11.3333C7.3335 10.9651 7.63197 10.6667 8.00016 10.6667C8.36835 10.6667 8.66683 10.9651 8.66683 11.3333ZM4.66683 9.33334C5.03502 9.33334 5.3335 9.03486 5.3335 8.66667C5.3335 8.29848 5.03502 8.00001 4.66683 8.00001C4.29864 8.00001 4.00016 8.29848 4.00016 8.66667C4.00016 9.03486 4.29864 9.33334 4.66683 9.33334ZM4.66683 12C5.03502 12 5.3335 11.7015 5.3335 11.3333C5.3335 10.9651 5.03502 10.6667 4.66683 10.6667C4.29864 10.6667 4.00016 10.9651 4.00016 11.3333C4.00016 11.7015 4.29864 12 4.66683 12Z" fill="#FFB81C"/>
</svg>
