<svg width="20" height="20" viewBox="0 0 20 20" fill="none" xmlns="http://www.w3.org/2000/svg">
<path fill-rule="evenodd" clip-rule="evenodd" d="M10.0001 18.3333C6.07171 18.3333 4.10752 18.3333 2.88714 17.1129C1.66675 15.8926 1.66675 13.9284 1.66675 10C1.66675 6.07163 1.66675 4.10744 2.88714 2.88705C4.10752 1.66667 6.07171 1.66667 10.0001 1.66667C13.9285 1.66667 15.8926 1.66667 17.113 2.88705C18.3334 4.10744 18.3334 6.07163 18.3334 10C18.3334 13.9284 18.3334 15.8926 17.113 17.1129C15.8926 18.3333 13.9285 18.3333 10.0001 18.3333ZM7.47479 7.47472C7.71887 7.23065 8.11459 7.23065 8.35867 7.47472L10.0001 9.11612L11.6415 7.47474C11.8855 7.23066 12.2813 7.23066 12.5253 7.47474C12.7694 7.71882 12.7694 8.11455 12.5253 8.35862L10.884 10L12.5253 11.6414C12.7694 11.8855 12.7694 12.2812 12.5253 12.5253C12.2812 12.7693 11.8855 12.7693 11.6414 12.5253L10.0001 10.8839L8.35869 12.5253C8.11461 12.7694 7.71888 12.7694 7.47481 12.5253C7.23073 12.2812 7.23073 11.8855 7.47481 11.6414L9.11619 10L7.47479 8.35861C7.23071 8.11453 7.23071 7.7188 7.47479 7.47472Z" fill="#EA2A33"/>
</svg>
