<svg width="16" height="16" viewBox="0 0 16 16" fill="none" xmlns="http://www.w3.org/2000/svg">
<path d="M11.0126 11.0009C11.1293 10.9099 11.2351 10.8041 11.4467 10.5924L14.085 7.95417C14.1488 7.89039 14.1196 7.78053 14.0343 7.75096C13.7229 7.64292 13.3178 7.44007 12.9389 7.06113C12.5599 6.68218 12.3571 6.27708 12.249 5.96566C12.2195 5.88044 12.1096 5.85125 12.0458 5.91503L9.40757 8.5533L9.40756 8.55331C9.19594 8.76493 9.09013 8.87074 8.99913 8.98741C8.89178 9.12504 8.79975 9.27395 8.72466 9.43151C8.661 9.56508 8.61368 9.70705 8.51904 9.99097L8.39675 10.3578L8.20229 10.9412L8.01996 11.4882C7.97339 11.6279 8.00976 11.782 8.1139 11.8861C8.21804 11.9903 8.37209 12.0266 8.51181 11.98L9.0588 11.7977L9.64216 11.6033L10.009 11.481L10.009 11.481C10.293 11.3863 10.4349 11.339 10.5685 11.2753C10.7261 11.2003 10.875 11.1082 11.0126 11.0009Z" fill="#FFB81C"/>
<path d="M14.911 7.12813C15.4741 6.56503 15.4741 5.65208 14.911 5.08899C14.3479 4.5259 13.435 4.5259 12.8719 5.08899L12.7871 5.17381C12.7052 5.25566 12.6681 5.36998 12.6886 5.48391C12.7014 5.55558 12.7253 5.66036 12.7687 5.78539C12.8554 6.03543 13.0192 6.36366 13.3278 6.67222C13.6363 6.98077 13.9646 7.14459 14.2146 7.23134C14.3396 7.27472 14.4444 7.29856 14.5161 7.31143C14.63 7.33188 14.7443 7.29479 14.8262 7.21295L14.911 7.12813Z" fill="#FFB81C"/>
<path fill-rule="evenodd" clip-rule="evenodd" d="M2.78105 2.11438C2 2.89543 2 4.1525 2 6.66666V9.33333C2 11.8475 2 13.1046 2.78105 13.8856C3.5621 14.6667 4.81918 14.6667 7.33333 14.6667H8.66667C11.1808 14.6667 12.4379 14.6667 13.219 13.8856C13.9875 13.1171 13.9998 11.8877 14 9.45337L12.1211 11.3322C11.9413 11.5122 11.794 11.6596 11.6276 11.7894C11.4327 11.9414 11.2219 12.0717 10.9987 12.1781C10.8083 12.2688 10.6106 12.3346 10.3692 12.415L8.82806 12.9287C8.32901 13.0951 7.7788 12.9652 7.40682 12.5932C7.03484 12.2212 6.90496 11.671 7.07131 11.172L7.25364 10.625L7.57038 9.67473L7.58499 9.63087C7.66537 9.38945 7.7312 9.19174 7.82196 9.00128C7.9283 8.77816 8.05863 8.56728 8.21065 8.37238C8.3404 8.20602 8.48781 8.05872 8.66779 7.87887L11.3388 5.20792L12.08 4.46669L12.1648 4.38187C12.6417 3.90494 13.2669 3.66653 13.892 3.66666C13.7911 2.97963 13.5961 2.49151 13.219 2.11438C12.4379 1.33333 11.1808 1.33333 8.66667 1.33333H7.33333C4.81918 1.33333 3.5621 1.33333 2.78105 2.11438ZM4.83333 5.99999C4.83333 5.72385 5.05719 5.49999 5.33333 5.49999H9.66667C9.94281 5.49999 10.1667 5.72385 10.1667 5.99999C10.1667 6.27614 9.94281 6.49999 9.66667 6.49999H5.33333C5.05719 6.49999 4.83333 6.27614 4.83333 5.99999ZM4.83333 8.66666C4.83333 8.39052 5.05719 8.16666 5.33333 8.16666H7C7.27614 8.16666 7.5 8.39052 7.5 8.66666C7.5 8.9428 7.27614 9.16666 7 9.16666H5.33333C5.05719 9.16666 4.83333 8.9428 4.83333 8.66666ZM4.83333 11.3333C4.83333 11.0572 5.05719 10.8333 5.33333 10.8333H6.33333C6.60948 10.8333 6.83333 11.0572 6.83333 11.3333C6.83333 11.6095 6.60948 11.8333 6.33333 11.8333H5.33333C5.05719 11.8333 4.83333 11.6095 4.83333 11.3333Z" fill="#FFB81C"/>
</svg>
