<svg width="360" height="46" viewBox="0 0 360 46" fill="none" xmlns="http://www.w3.org/2000/svg">
<rect width="360" height="46" rx="10" fill="url(#paint0_linear_14_210)"/>
<path d="M166.522 29.1455C166.291 29.1455 166.064 29.1333 165.84 29.1091C165.616 29.0848 165.388 29.0515 165.158 29.0091C164.928 28.9667 164.691 28.9152 164.449 28.8545C164.207 28.7879 163.952 28.7152 163.685 28.6364L162.603 28.3091L163.258 26.1273C163.785 26.3091 164.331 26.4697 164.894 26.6091C165.464 26.7485 166 26.8394 166.503 26.8818C166.667 26.8939 166.825 26.9 166.976 26.9C167.279 26.9 167.582 26.8667 167.885 26.8C168.194 26.7333 168.413 26.5667 168.54 26.3C168.564 26.2515 168.576 26.1939 168.576 26.1273C168.576 26.0848 168.564 26.0182 168.54 25.9273C168.516 25.8364 168.455 25.7212 168.358 25.5818L164.967 20.6364L166.876 19.4L167.494 20.3545C167.494 20.3606 167.503 20.3788 167.522 20.4091C167.546 20.4394 167.588 20.503 167.649 20.6C167.716 20.697 167.807 20.8364 167.922 21.0182C168.043 21.1939 168.2 21.4273 168.394 21.7182C168.588 22.0091 168.825 22.3697 169.103 22.8C169.388 23.2242 169.728 23.7333 170.122 24.3273C170.431 24.7939 170.622 25.2758 170.694 25.7727C170.713 25.9 170.722 26.0242 170.722 26.1455C170.722 26.5091 170.649 26.8576 170.503 27.1909C170.4 27.4333 170.261 27.6576 170.085 27.8636C169.916 28.0636 169.716 28.2424 169.485 28.4C169.055 28.697 168.537 28.9 167.931 29.0091C167.422 29.1 166.952 29.1455 166.522 29.1455ZM173.313 31.7545C173.797 31.7545 174.228 31.7364 174.603 31.7C174.985 31.6697 175.322 31.6212 175.613 31.5545C175.909 31.4939 176.167 31.4121 176.385 31.3091C176.609 31.2121 176.803 31.0939 176.967 30.9545C177.222 30.7485 177.413 30.5091 177.54 30.2364C177.673 29.9636 177.752 29.597 177.776 29.1364H176.376C176.073 29.1364 175.764 29.1121 175.449 29.0636C175.134 29.0152 174.831 28.9333 174.54 28.8182C174.249 28.697 173.973 28.5424 173.712 28.3545C173.458 28.1667 173.234 27.9364 173.04 27.6636C172.852 27.3848 172.7 27.0576 172.585 26.6818C172.476 26.3061 172.422 25.8758 172.422 25.3909C172.422 24.9727 172.458 24.603 172.531 24.2818C172.603 23.9545 172.694 23.6667 172.803 23.4182C172.919 23.1697 173.046 22.9545 173.185 22.7727C173.325 22.5848 173.458 22.4212 173.585 22.2818C173.949 21.9182 174.361 21.6394 174.822 21.4455C175.282 21.2455 175.779 21.1455 176.312 21.1455C176.973 21.1455 177.537 21.2606 178.003 21.4909C178.476 21.7152 178.861 22.0273 179.158 22.4273C179.461 22.8273 179.682 23.303 179.822 23.8545C179.961 24.4 180.031 24.9939 180.031 25.6364V28.8636C180.031 29.7667 179.894 30.5242 179.622 31.1364C179.349 31.7545 178.934 32.2848 178.376 32.7273C178.097 32.9455 177.794 33.1333 177.467 33.2909C177.14 33.4545 176.773 33.5909 176.367 33.7C175.961 33.8091 175.506 33.8879 175.003 33.9364C174.506 33.9909 173.943 34.0182 173.313 34.0182V31.7545ZM176.312 23.4091C175.797 23.4091 175.388 23.5697 175.085 23.8909C174.782 24.2121 174.631 24.7121 174.631 25.3909C174.631 25.6576 174.682 25.8848 174.785 26.0727C174.894 26.2606 175.031 26.4152 175.194 26.5364C175.364 26.6515 175.552 26.7364 175.758 26.7909C175.964 26.8455 176.17 26.8727 176.376 26.8727H177.776V25.6364C177.776 25.2909 177.749 24.997 177.694 24.7545C177.64 24.5061 177.567 24.3 177.476 24.1364C177.391 23.9727 177.291 23.8424 177.176 23.7455C177.067 23.6485 176.958 23.5758 176.849 23.5273C176.746 23.4788 176.646 23.4485 176.549 23.4364C176.452 23.4182 176.373 23.4091 176.312 23.4091ZM187.755 28.5818C187.718 29.4182 187.564 30.1697 187.291 30.8364C187.018 31.5091 186.642 32.0788 186.164 32.5455C185.685 33.0182 185.106 33.3818 184.427 33.6364C183.748 33.8909 182.982 34.0182 182.127 34.0182H181V31.7545H182.127C182.709 31.7545 183.212 31.6939 183.636 31.5727C184.061 31.4515 184.409 31.2576 184.682 30.9909C184.955 30.7242 185.158 30.3758 185.291 29.9455C185.424 29.5212 185.491 29.003 185.491 28.3909V22.8545H187.755V28.5818ZM190.813 31.7545C191.297 31.7545 191.728 31.7364 192.103 31.7C192.485 31.6697 192.822 31.6212 193.113 31.5545C193.409 31.4939 193.667 31.4121 193.885 31.3091C194.109 31.2121 194.303 31.0939 194.467 30.9545C194.722 30.7485 194.913 30.5091 195.04 30.2364C195.173 29.9636 195.252 29.597 195.276 29.1364H193.876C193.573 29.1364 193.264 29.1121 192.949 29.0636C192.634 29.0152 192.331 28.9333 192.04 28.8182C191.749 28.697 191.473 28.5424 191.212 28.3545C190.958 28.1667 190.734 27.9364 190.54 27.6636C190.352 27.3848 190.2 27.0576 190.085 26.6818C189.976 26.3061 189.922 25.8758 189.922 25.3909C189.922 24.9727 189.958 24.603 190.031 24.2818C190.103 23.9545 190.194 23.6667 190.303 23.4182C190.419 23.1697 190.546 22.9545 190.685 22.7727C190.825 22.5848 190.958 22.4212 191.085 22.2818C191.449 21.9182 191.861 21.6394 192.322 21.4455C192.782 21.2455 193.279 21.1455 193.812 21.1455C194.473 21.1455 195.037 21.2606 195.503 21.4909C195.976 21.7152 196.361 22.0273 196.658 22.4273C196.961 22.8273 197.182 23.303 197.322 23.8545C197.461 24.4 197.531 24.9939 197.531 25.6364V28.8636C197.531 29.7667 197.394 30.5242 197.122 31.1364C196.849 31.7545 196.434 32.2848 195.876 32.7273C195.597 32.9455 195.294 33.1333 194.967 33.2909C194.64 33.4545 194.273 33.5909 193.867 33.7C193.461 33.8091 193.006 33.8879 192.503 33.9364C192.006 33.9909 191.443 34.0182 190.813 34.0182V31.7545ZM193.812 23.4091C193.297 23.4091 192.888 23.5697 192.585 23.8909C192.282 24.2121 192.131 24.7121 192.131 25.3909C192.131 25.6576 192.182 25.8848 192.285 26.0727C192.394 26.2606 192.531 26.4152 192.694 26.5364C192.864 26.6515 193.052 26.7364 193.258 26.7909C193.464 26.8455 193.67 26.8727 193.876 26.8727H195.276V25.6364C195.276 25.2909 195.249 24.997 195.194 24.7545C195.14 24.5061 195.067 24.3 194.976 24.1364C194.891 23.9727 194.791 23.8424 194.676 23.7455C194.567 23.6485 194.458 23.5758 194.349 23.5273C194.246 23.4788 194.146 23.4485 194.049 23.4364C193.952 23.4182 193.873 23.4091 193.812 23.4091Z" fill="white"/>
<defs>
<linearGradient id="paint0_linear_14_210" x1="360" y1="46" x2="-7.52726e-07" y2="46" gradientUnits="userSpaceOnUse">
<stop stop-color="#0077C0"/>
<stop offset="1" stop-color="#2BAEFF"/>
</linearGradient>
</defs>
</svg>
