<svg width="280" height="67" viewBox="0 0 280 67" fill="none" xmlns="http://www.w3.org/2000/svg">
<path d="M20.5176 20.1636H17.6048C17.7721 20.4036 17.9103 20.6655 18.0194 20.9491C18.1285 21.24 18.183 21.5018 18.183 21.7345C18.183 22.4109 17.9976 23.0218 17.6266 23.5673C17.2557 24.12 16.7539 24.5891 16.1212 24.9745C15.4885 25.36 14.7503 25.6582 13.9066 25.8691C13.0703 26.08 12.1794 26.1855 11.2339 26.1855H8.44119C7.84483 26.1855 7.27392 26.1164 6.72847 25.9782C6.18301 25.84 5.67028 25.64 5.19028 25.3782C4.71028 25.1236 4.27028 24.8109 3.87028 24.44C3.47028 24.0764 3.11756 23.6618 2.8121 23.1964C2.0921 22.0327 1.7321 20.6691 1.7321 19.1055C1.7321 18.6255 1.75756 18.1491 1.80847 17.6764C1.86665 17.2036 1.95756 16.72 2.08119 16.2255C2.2121 15.7236 2.37937 15.2036 2.58301 14.6655C2.79392 14.12 3.0521 13.5309 3.35756 12.8982L5.77937 14.0655C5.52483 14.6036 5.31392 15.0945 5.14665 15.5382C4.97938 15.9818 4.84119 16.4036 4.7321 16.8036C4.63028 17.1964 4.55756 17.5782 4.51392 17.9491C4.47028 18.3127 4.44847 18.68 4.44847 19.0509C4.44847 20.1055 4.68119 21 5.14665 21.7345C5.48119 22.2873 5.93574 22.7091 6.51028 23C7.0921 23.2982 7.73574 23.4473 8.44119 23.4473H11.2339C11.7794 23.4473 12.2957 23.3964 12.783 23.2945C13.2703 23.1927 13.6994 23.0509 14.0703 22.8691C14.4412 22.6873 14.743 22.4764 14.9757 22.2364C15.2085 22.0036 15.343 21.7491 15.3794 21.4727C15.1685 21.2473 14.8994 21.0545 14.5721 20.8945C14.2521 20.7418 13.8848 20.6109 13.4703 20.5018C13.063 20.4 12.6194 20.32 12.1394 20.2618C11.6666 20.2109 11.1721 20.1745 10.6557 20.1527L10.7321 17.4473H20.5176V20.1636ZM25.7857 11C25.8003 11.0509 25.8293 11.1709 25.873 11.36C25.9239 11.5491 25.9784 11.7818 26.0366 12.0582C26.0948 12.3273 26.153 12.6291 26.2112 12.9636C26.2766 13.2982 26.3348 13.6364 26.3857 13.9782C26.4439 14.3127 26.4875 14.64 26.5166 14.96C26.553 15.28 26.5712 15.56 26.5712 15.8C26.5712 16.5491 26.4475 17.2 26.2003 17.7527C25.953 18.2982 25.6293 18.7491 25.2293 19.1055C24.8293 19.4618 24.3784 19.7273 23.8766 19.9018C23.3821 20.0764 22.8839 20.1636 22.3821 20.1636H17.6803V17.4473H22.4584C22.5457 17.4473 22.6693 17.4364 22.8293 17.4145C22.9966 17.3855 23.1603 17.3164 23.3203 17.2073C23.4875 17.0982 23.633 16.9345 23.7566 16.7164C23.8803 16.4909 23.9421 16.1855 23.9421 15.8C23.9421 15.64 23.9275 15.4473 23.8984 15.2218C23.8766 14.9891 23.8439 14.7418 23.8003 14.48C23.7566 14.2182 23.7057 13.9527 23.6475 13.6836C23.5966 13.4073 23.5457 13.1491 23.4948 12.9091C23.4439 12.6618 23.393 12.44 23.3421 12.2436C23.2912 12.04 23.2512 11.8836 23.2221 11.7745L25.7857 11ZM24.5203 26.0982L22.6875 24.2436L24.4984 22.3673L26.3748 24.2436L24.5203 26.0982ZM19.9493 26.1091L18.1166 24.2545L19.9166 22.3782L21.793 24.2545L19.9493 26.1091ZM30.3063 23.3055C30.8881 23.3055 31.4044 23.2836 31.8553 23.24C32.3135 23.2036 32.7172 23.1455 33.0663 23.0655C33.4226 22.9927 33.7317 22.8945 33.9935 22.7709C34.2626 22.6545 34.4953 22.5127 34.6917 22.3455C34.9972 22.0982 35.2263 21.8109 35.379 21.4836C35.539 21.1564 35.6335 20.7164 35.6626 20.1636H33.9826C33.619 20.1636 33.2481 20.1345 32.8699 20.0764C32.4917 20.0182 32.1281 19.92 31.779 19.7818C31.4299 19.6364 31.099 19.4509 30.7862 19.2255C30.4808 19 30.2117 18.7236 29.979 18.3964C29.7535 18.0618 29.5717 17.6691 29.4335 17.2182C29.3026 16.7673 29.2372 16.2509 29.2372 15.6691C29.2372 15.1673 29.2808 14.7236 29.3681 14.3382C29.4553 13.9455 29.5644 13.6 29.6953 13.3018C29.8335 13.0036 29.9863 12.7455 30.1535 12.5273C30.3208 12.3018 30.4808 12.1055 30.6335 11.9382C31.0699 11.5018 31.5644 11.1673 32.1172 10.9345C32.6699 10.6945 33.2663 10.5745 33.9062 10.5745C34.699 10.5745 35.3753 10.7127 35.9353 10.9891C36.5026 11.2582 36.9644 11.6327 37.3208 12.1127C37.6844 12.5927 37.9499 13.1636 38.1172 13.8255C38.2844 14.48 38.3681 15.1927 38.3681 15.9636V17.4473H40.2226V20.1636H38.3572C38.3281 21.16 38.1499 22 37.8226 22.6836C37.5026 23.3673 37.0226 23.9636 36.3826 24.4727C36.0481 24.7345 35.6844 24.96 35.2917 25.1491C34.899 25.3455 34.459 25.5091 33.9717 25.64C33.4844 25.7709 32.939 25.8655 32.3353 25.9236C31.739 25.9891 31.0626 26.0218 30.3063 26.0218V23.3055ZM33.9062 13.2909C33.2881 13.2909 32.7972 13.4836 32.4335 13.8691C32.0699 14.2545 31.8881 14.8545 31.8881 15.6691C31.8881 15.9891 31.9499 16.2618 32.0735 16.4873C32.2044 16.7127 32.3681 16.8982 32.5644 17.0436C32.7681 17.1818 32.9935 17.2836 33.2408 17.3491C33.4881 17.4145 33.7353 17.4473 33.9826 17.4473H35.6626V15.9636C35.6626 15.5491 35.6299 15.1964 35.5644 14.9055C35.499 14.6073 35.4117 14.36 35.3026 14.1636C35.2008 13.9673 35.0808 13.8109 34.9426 13.6945C34.8117 13.5782 34.6808 13.4909 34.5499 13.4327C34.4263 13.3745 34.3063 13.3382 34.1899 13.3236C34.0735 13.3018 33.979 13.2909 33.9062 13.2909ZM54.6772 15.8218C54.6408 15.8436 54.5244 15.9236 54.3281 16.0618C54.1317 16.1927 53.8662 16.3636 53.5317 16.5745C53.6044 16.7927 53.7172 16.9636 53.8699 17.0873C54.0226 17.2036 54.179 17.2909 54.339 17.3491C54.499 17.4 54.6481 17.4291 54.7863 17.4364C54.9317 17.4436 55.0335 17.4473 55.0917 17.4473H57.0881V20.1636H55.0917C54.2262 20.1564 53.4481 19.9673 52.7572 19.5964C52.0735 19.2182 51.539 18.6545 51.1535 17.9055C50.5935 18.1818 49.9899 18.4582 49.3426 18.7345C48.6953 19.0036 48.019 19.2436 47.3135 19.4545C46.6081 19.6655 45.8844 19.8364 45.1426 19.9673C44.4008 20.0982 43.659 20.1636 42.9172 20.1636H39.6663V17.4473H42.9172C43.6299 17.4473 44.3899 17.3745 45.1972 17.2291C46.0044 17.0836 46.8008 16.8982 47.5862 16.6727C48.3717 16.44 49.1172 16.1818 49.8226 15.8982C50.5353 15.6145 51.1535 15.3345 51.6772 15.0582C51.3499 14.9564 50.9899 14.8473 50.5972 14.7309C50.2044 14.6073 49.8044 14.4873 49.3972 14.3709C48.9899 14.2473 48.5863 14.1309 48.1862 14.0218C47.7862 13.9055 47.4117 13.8036 47.0626 13.7164C46.7135 13.6291 46.4008 13.56 46.1244 13.5091C45.8481 13.4582 45.6299 13.4327 45.4699 13.4327C45.3026 13.4327 45.1535 13.4545 45.0226 13.4982C44.899 13.5345 44.7862 13.6 44.6844 13.6945C44.5826 13.7818 44.4881 13.8982 44.4008 14.0436C44.3135 14.1891 44.2226 14.3636 44.1281 14.5673L41.6299 13.8145C41.7681 13.3782 41.9353 12.9709 42.1317 12.5927C42.3353 12.2073 42.579 11.8727 42.8626 11.5891C43.1535 11.3055 43.4881 11.0836 43.8663 10.9236C44.2444 10.7564 44.6772 10.6727 45.1644 10.6727C45.3535 10.6727 45.6226 10.7127 45.9717 10.7927C46.3208 10.8727 46.7172 10.9782 47.1608 11.1091C47.6044 11.24 48.0772 11.3891 48.579 11.5564C49.0881 11.7236 49.5972 11.8982 50.1063 12.08C50.6153 12.2618 51.1099 12.44 51.5899 12.6145C52.0699 12.7891 52.5026 12.9491 52.8881 13.0945C53.2735 13.2327 53.5972 13.3491 53.859 13.4436C54.1208 13.5382 54.2881 13.5964 54.3608 13.6182L54.6772 15.8218ZM45.459 23.9055L47.4226 21.92L49.4299 23.9273L47.4444 25.9127L45.459 23.9055ZM56.6334 17.4473H58.0407C58.4697 17.4473 58.8152 17.4109 59.077 17.3382C59.3461 17.2655 59.5534 17.16 59.6988 17.0218C59.8516 16.8764 59.9534 16.7018 60.0043 16.4982C60.0552 16.2945 60.0807 16.0618 60.0807 15.8V12.6255H62.797V15.7455C62.797 16.3345 62.9388 16.7636 63.2225 17.0327C63.5061 17.3018 63.9534 17.44 64.5643 17.4473C64.6734 17.44 64.8043 17.4182 64.957 17.3818C65.117 17.3455 65.2697 17.2727 65.4152 17.1636C65.5679 17.0473 65.6952 16.8836 65.797 16.6727C65.9061 16.4545 65.9607 16.1636 65.9607 15.8V12.6255H68.6661V15.7455C68.6661 16.3418 68.8079 16.7745 69.0916 17.0436C69.3752 17.3127 69.837 17.4473 70.477 17.4473C70.6516 17.4473 70.8225 17.4218 70.9897 17.3709C71.1643 17.3127 71.3207 17.2218 71.4588 17.0982C71.597 16.9673 71.7097 16.8 71.797 16.5964C71.8843 16.3927 71.9352 16.1418 71.9497 15.8436V12.6255H74.6661V15.8545C74.6807 16.4145 74.8516 16.8218 75.1788 17.0764C75.5061 17.3236 76.0079 17.4473 76.6843 17.4473H77.7534V20.1636H76.6843C75.9352 20.1636 75.2843 20.0836 74.7316 19.9236C74.1788 19.7564 73.7025 19.4873 73.3025 19.1164C72.9316 19.4582 72.4952 19.72 71.9934 19.9018C71.4988 20.0764 70.9934 20.1636 70.477 20.1636C69.7934 20.1636 69.1934 20.08 68.677 19.9127C68.1679 19.7455 67.7134 19.4764 67.3134 19.1055C66.9352 19.44 66.5097 19.6982 66.037 19.88C65.5716 20.0618 65.0988 20.1564 64.6188 20.1636H64.5425C63.8879 20.1636 63.3061 20.0764 62.797 19.9018C62.2879 19.72 61.8443 19.4691 61.4661 19.1491C60.6152 19.8255 59.4734 20.1636 58.0407 20.1636H56.6334V17.4473ZM67.0079 8.10909L65.1534 9.98545L63.2988 8.13091L65.1534 6.25455L67.0079 8.10909ZM71.6879 8.06545L69.8552 9.92L67.9461 8.08727L69.8225 6.21091L71.6879 8.06545ZM69.277 4.98909L67.5316 6.73455L65.8079 5.01091L67.5534 3.26545L69.277 4.98909ZM83.6341 11C83.6487 11.0509 83.6778 11.1709 83.7214 11.36C83.7723 11.5491 83.8269 11.7818 83.8851 12.0582C83.9432 12.3273 84.0014 12.6291 84.0596 12.9636C84.1251 13.2982 84.1832 13.6364 84.2341 13.9782C84.2923 14.3127 84.336 14.64 84.3651 14.96C84.4014 15.28 84.4196 15.56 84.4196 15.8C84.4196 16.5491 84.296 17.2 84.0487 17.7527C83.8014 18.2982 83.4778 18.7491 83.0778 19.1055C82.6778 19.4618 82.2269 19.7273 81.7251 19.9018C81.2305 20.0764 80.7323 20.1636 80.2305 20.1636H77.3287V17.4473H80.3069C80.3941 17.4473 80.5178 17.4364 80.6778 17.4145C80.8451 17.3855 81.0087 17.3164 81.1687 17.2073C81.336 17.0982 81.4814 16.9345 81.6051 16.7164C81.7287 16.4909 81.7905 16.1855 81.7905 15.8C81.7905 15.64 81.776 15.4473 81.7469 15.2218C81.7251 14.9891 81.6923 14.7418 81.6487 14.48C81.6051 14.2182 81.5541 13.9527 81.496 13.6836C81.4451 13.4073 81.3941 13.1491 81.3432 12.9091C81.2923 12.6618 81.2414 12.44 81.1905 12.2436C81.1396 12.04 81.0996 11.8836 81.0705 11.7745L83.6341 11ZM79.5432 6.61455L81.5069 4.62909L83.5141 6.63636L81.5287 8.62182L79.5432 6.61455ZM89.7111 20.1636H86.9947V4.43273H89.7111V20.1636ZM97.3447 20.1745C97.0684 20.1745 96.7957 20.16 96.5266 20.1309C96.2575 20.1018 95.9847 20.0618 95.7084 20.0109C95.432 19.96 95.1484 19.8982 94.8575 19.8255C94.5666 19.7455 94.2611 19.6582 93.9411 19.5636L92.6429 19.1709L93.4284 16.5527C94.0611 16.7709 94.7157 16.9636 95.392 17.1309C96.0757 17.2982 96.7193 17.4073 97.3229 17.4582C97.5193 17.4727 97.7084 17.48 97.8902 17.48C98.2538 17.48 98.6175 17.44 98.9811 17.36C99.352 17.28 99.6138 17.08 99.7666 16.76C99.7957 16.7018 99.8102 16.6327 99.8102 16.5527C99.8102 16.5018 99.7957 16.4218 99.7666 16.3127C99.7375 16.2036 99.6647 16.0655 99.5484 15.8982L95.4793 9.96364L97.7702 8.48L98.512 9.62545C98.512 9.63273 98.5229 9.65455 98.5447 9.69091C98.5738 9.72727 98.6247 9.80364 98.6975 9.92C98.7775 10.0364 98.8866 10.2036 99.0247 10.4218C99.1702 10.6327 99.3593 10.9127 99.592 11.2618C99.8247 11.6109 100.108 12.0436 100.443 12.56C100.785 13.0691 101.192 13.68 101.665 14.3927C102.036 14.9527 102.265 15.5309 102.352 16.1273C102.374 16.28 102.385 16.4291 102.385 16.5745C102.385 17.0109 102.297 17.4291 102.123 17.8291C101.999 18.12 101.832 18.3891 101.621 18.6364C101.417 18.8764 101.177 19.0909 100.901 19.28C100.385 19.6364 99.7629 19.88 99.0357 20.0109C98.4247 20.12 97.8611 20.1745 97.3447 20.1745ZM130.346 20.1636H127.433C127.6 20.4036 127.738 20.6655 127.848 20.9491C127.957 21.24 128.011 21.5018 128.011 21.7345C128.011 22.4109 127.826 23.0218 127.455 23.5673C127.084 24.12 126.582 24.5891 125.949 24.9745C125.317 25.36 124.578 25.6582 123.735 25.8691C122.898 26.08 122.008 26.1855 121.062 26.1855H118.269C117.673 26.1855 117.102 26.1164 116.557 25.9782C116.011 25.84 115.498 25.64 115.018 25.3782C114.538 25.1236 114.098 24.8109 113.698 24.44C113.298 24.0764 112.946 23.6618 112.64 23.1964C111.92 22.0327 111.56 20.6691 111.56 19.1055C111.56 18.6255 111.586 18.1491 111.637 17.6764C111.695 17.2036 111.786 16.72 111.909 16.2255C112.04 15.7236 112.207 15.2036 112.411 14.6655C112.622 14.12 112.88 13.5309 113.186 12.8982L115.607 14.0655C115.353 14.6036 115.142 15.0945 114.975 15.5382C114.808 15.9818 114.669 16.4036 114.56 16.8036C114.458 17.1964 114.386 17.5782 114.342 17.9491C114.298 18.3127 114.277 18.68 114.277 19.0509C114.277 20.1055 114.509 21 114.975 21.7345C115.309 22.2873 115.764 22.7091 116.338 23C116.92 23.2982 117.564 23.4473 118.269 23.4473H121.062C121.608 23.4473 122.124 23.3964 122.611 23.2945C123.098 23.1927 123.527 23.0509 123.898 22.8691C124.269 22.6873 124.571 22.4764 124.804 22.2364C125.037 22.0036 125.171 21.7491 125.208 21.4727C124.997 21.2473 124.728 21.0545 124.4 20.8945C124.08 20.7418 123.713 20.6109 123.298 20.5018C122.891 20.4 122.447 20.32 121.967 20.2618C121.495 20.2109 121 20.1745 120.484 20.1527L120.56 17.4473H130.346V20.1636ZM133.814 11C133.828 11.0509 133.857 11.1709 133.901 11.36C133.952 11.5491 134.007 11.7818 134.065 12.0582C134.123 12.3273 134.181 12.6291 134.239 12.9636C134.305 13.2982 134.363 13.6364 134.414 13.9782C134.472 14.3127 134.516 14.64 134.545 14.96C134.581 15.28 134.599 15.56 134.599 15.8C134.599 16.5491 134.476 17.2 134.228 17.7527C133.981 18.2982 133.657 18.7491 133.257 19.1055C132.857 19.4618 132.407 19.7273 131.905 19.9018C131.41 20.0764 130.912 20.1636 130.41 20.1636H127.508V17.4473H130.487C130.574 17.4473 130.697 17.4364 130.857 17.4145C131.025 17.3855 131.188 17.3164 131.348 17.2073C131.516 17.0982 131.661 16.9345 131.785 16.7164C131.908 16.4909 131.97 16.1855 131.97 15.8C131.97 15.64 131.956 15.4473 131.927 15.2218C131.905 14.9891 131.872 14.7418 131.828 14.48C131.785 14.2182 131.734 13.9527 131.676 13.6836C131.625 13.4073 131.574 13.1491 131.523 12.9091C131.472 12.6618 131.421 12.44 131.37 12.2436C131.319 12.04 131.279 11.8836 131.25 11.7745L133.814 11ZM129.047 23.96L131.01 21.9745L133.017 23.9818L131.032 25.9673L129.047 23.96ZM142.476 20.1636C141.676 20.1636 140.989 20.1127 140.414 20.0109C139.84 19.9164 139.356 19.7745 138.964 19.5855C138.571 19.3891 138.254 19.1418 138.014 18.8436C137.782 18.5455 137.604 18.1964 137.48 17.7964C137.356 17.3964 137.273 16.9455 137.229 16.4436C137.193 15.9345 137.174 15.3745 137.174 14.7636V4.43273H139.891V14.7636C139.891 15.3455 139.909 15.8109 139.945 16.16C139.989 16.5091 140.094 16.7818 140.262 16.9782C140.436 17.1673 140.694 17.2945 141.036 17.36C141.385 17.4182 141.865 17.4473 142.476 17.4473V20.1636ZM150.996 17.4473V20.1636H150.309C149.691 20.1636 149.127 20.08 148.618 19.9127C148.109 19.7455 147.68 19.4982 147.331 19.1709C146.923 19.5127 146.44 19.7636 145.88 19.9236C145.327 20.0836 144.694 20.1636 143.981 20.1636H142.051V17.4473H143.981C144.425 17.4473 144.778 17.4073 145.04 17.3273C145.309 17.24 145.509 17.1345 145.64 17.0109C145.778 16.8873 145.865 16.7491 145.901 16.5964C145.945 16.4436 145.967 16.2945 145.967 16.1491V12.6145H148.672V16.0727C148.672 16.4 148.745 16.6582 148.891 16.8473C149.036 17.0291 149.2 17.1673 149.381 17.2618C149.571 17.3491 149.756 17.4036 149.938 17.4255C150.12 17.44 150.243 17.4473 150.309 17.4473H150.996ZM144.374 24.08L146.338 22.0945L148.345 24.1018L146.36 26.0873L144.374 24.08ZM162.287 17.4473V20.1636H160.673C160.055 20.1636 159.491 20.08 158.982 19.9127C158.473 19.7455 158.044 19.4982 157.695 19.1709C157.287 19.5127 156.804 19.7636 156.244 19.9236C155.691 20.0836 155.058 20.1636 154.345 20.1636H150.571V17.4473H154.345C154.789 17.4473 155.142 17.4073 155.404 17.3273C155.673 17.24 155.873 17.1345 156.004 17.0109C156.142 16.8873 156.229 16.7491 156.265 16.5964C156.309 16.4436 156.331 16.2945 156.331 16.1491V12.6145H159.036V16.0727C159.036 16.4 159.109 16.6582 159.255 16.8473C159.4 17.0291 159.564 17.1673 159.745 17.2618C159.935 17.3491 160.12 17.4036 160.302 17.4255C160.484 17.44 160.607 17.4473 160.673 17.4473H162.287ZM157.924 26.1636L156.091 24.3091L157.902 22.4327L159.778 24.3091L157.924 26.1636ZM153.353 26.1745L151.52 24.32L153.32 22.4436L155.196 24.32L153.353 26.1745ZM170.299 20.1418C168.968 20.1418 167.913 19.7964 167.135 19.1055C166.735 19.4764 166.292 19.7455 165.804 19.9127C165.317 20.08 164.815 20.1636 164.299 20.1636H161.844V17.4473H164.299C164.386 17.4473 164.51 17.4327 164.67 17.4036C164.837 17.3745 165.001 17.3055 165.161 17.1964C165.328 17.08 165.473 16.9127 165.597 16.6945C165.721 16.4691 165.783 16.16 165.783 15.7673V12.6255H168.499V15.7236C168.499 16.32 168.637 16.7564 168.913 17.0327C169.197 17.3018 169.659 17.4364 170.299 17.4364C170.386 17.4364 170.51 17.4218 170.67 17.3927C170.837 17.3564 171.001 17.28 171.161 17.1636C171.328 17.0473 171.473 16.8764 171.597 16.6509C171.721 16.4182 171.783 16.1091 171.783 15.7236V12.6255H174.488V15.7236C174.488 16.32 174.63 16.76 174.913 17.0436C175.204 17.32 175.673 17.4582 176.321 17.4582C176.415 17.4582 176.543 17.44 176.703 17.4036C176.87 17.36 177.033 17.28 177.193 17.1636C177.353 17.04 177.492 16.8655 177.608 16.64C177.724 16.4145 177.783 16.1091 177.783 15.7236C177.783 15.5636 177.768 15.3709 177.739 15.1455C177.717 14.92 177.684 14.6836 177.641 14.4364C177.604 14.1818 177.561 13.9273 177.51 13.6727C177.459 13.4109 177.408 13.1636 177.357 12.9309C177.306 12.6982 177.255 12.4873 177.204 12.2982C177.161 12.1091 177.124 11.96 177.095 11.8509L179.659 11.0109C179.673 11.0618 179.703 11.1782 179.746 11.36C179.79 11.5418 179.841 11.7673 179.899 12.0364C179.964 12.3055 180.03 12.6036 180.095 12.9309C180.161 13.2582 180.219 13.5891 180.27 13.9236C180.328 14.2509 180.375 14.5745 180.412 14.8945C180.448 15.2073 180.466 15.4836 180.466 15.7236C180.466 16.4655 180.342 17.1164 180.095 17.6764C179.855 18.2291 179.539 18.6909 179.146 19.0618C178.753 19.4255 178.31 19.6982 177.815 19.88C177.321 20.0618 176.823 20.1564 176.321 20.1636C174.968 20.1636 173.899 19.8073 173.113 19.0945C172.713 19.4655 172.27 19.7345 171.783 19.9018C171.303 20.0618 170.808 20.1418 170.299 20.1418ZM172.764 7.80364L170.91 9.68L169.055 7.82545L170.91 5.94909L172.764 7.80364ZM177.444 7.76L175.612 9.61455L173.703 7.78182L175.579 5.90546L177.444 7.76ZM175.033 4.68364L173.288 6.42909L171.564 4.70545L173.31 2.96L175.033 4.68364ZM187.605 19.4982C187.562 20.5018 187.376 21.4036 187.049 22.2036C186.722 23.0109 186.271 23.6945 185.696 24.2545C185.122 24.8218 184.427 25.2582 183.613 25.5636C182.798 25.8691 181.878 26.0218 180.853 26.0218H179.5V23.3055H180.853C181.551 23.3055 182.155 23.2327 182.664 23.0873C183.173 22.9418 183.591 22.7091 183.918 22.3891C184.245 22.0691 184.489 21.6509 184.649 21.1345C184.809 20.6255 184.889 20.0036 184.889 19.2691V12.6255H187.605V19.4982ZM184.158 7.90182L186.122 5.91636L188.129 7.92364L186.144 9.90909L184.158 7.90182ZM197.543 19.4982C197.499 20.5018 197.314 21.4036 196.987 22.2036C196.659 23.0109 196.208 23.6945 195.634 24.2545C195.059 24.8218 194.365 25.2582 193.55 25.5636C192.736 25.8691 191.816 26.0218 190.79 26.0218H189.438V23.3055H190.79C191.488 23.3055 192.092 23.2327 192.601 23.0873C193.11 22.9418 193.528 22.7091 193.856 22.3891C194.183 22.0691 194.427 21.6509 194.587 21.1345C194.747 20.6255 194.827 20.0036 194.827 19.2691V12.6255H197.543V19.4982ZM203.008 20.1636H200.292V4.43273H203.008V20.1636ZM226.559 20.1636H226.254C225.686 20.1636 225.141 20.1091 224.617 20C224.094 19.8982 223.61 19.7418 223.166 19.5309C222.723 19.3127 222.326 19.0364 221.977 18.7018C221.635 18.3673 221.355 17.9709 221.137 17.5127C220.963 17.7818 220.737 18.0218 220.461 18.2327C220.192 18.4364 219.897 18.6073 219.577 18.7455C219.257 18.8836 218.926 18.9891 218.584 19.0618C218.243 19.1273 217.915 19.16 217.603 19.16C217.021 19.16 216.468 19.0582 215.944 18.8545C215.428 18.6509 214.974 18.3636 214.581 17.9927C214.188 17.6145 213.875 17.1564 213.643 16.6182C213.417 16.08 213.304 15.4727 213.304 14.7964C213.304 14.0109 213.454 13.32 213.752 12.7236C214.05 12.1273 214.446 11.6073 214.941 11.1636C215.435 10.7127 216.003 10.3309 216.643 10.0182C217.29 9.69818 217.959 9.42182 218.65 9.18909L218.388 8.14182L221.05 7.52L223.035 15.2436C223.152 15.7164 223.341 16.0982 223.603 16.3891C223.864 16.6727 224.148 16.8945 224.454 17.0545C224.766 17.2073 225.083 17.3127 225.403 17.3709C225.73 17.4218 226.014 17.4473 226.254 17.4473H226.559V20.1636ZM219.839 14.7418C219.875 14.5891 219.894 14.4327 219.894 14.2727C219.894 14.2218 219.886 14.1345 219.872 14.0109C219.864 13.88 219.835 13.6982 219.784 13.4655C219.734 13.2327 219.664 12.9818 219.577 12.7127C219.497 12.4436 219.41 12.1418 219.315 11.8073C218.152 12.1782 217.268 12.6 216.664 13.0727C216.068 13.5382 215.77 14.1164 215.77 14.8073C215.77 15.0764 215.828 15.3164 215.944 15.5273C216.068 15.7382 216.224 15.9127 216.414 16.0509C216.61 16.1891 216.828 16.2873 217.068 16.3455C217.221 16.3891 217.374 16.4109 217.526 16.4109C217.606 16.4109 217.69 16.4036 217.777 16.3891C218.323 16.3091 218.777 16.1491 219.141 15.9091C219.504 15.6618 219.737 15.2727 219.839 14.7418ZM232.439 11C232.453 11.0509 232.482 11.1709 232.526 11.36C232.577 11.5491 232.632 11.7818 232.69 12.0582C232.748 12.3273 232.806 12.6291 232.864 12.9636C232.93 13.2982 232.988 13.6364 233.039 13.9782C233.097 14.3127 233.141 14.64 233.17 14.96C233.206 15.28 233.224 15.56 233.224 15.8C233.224 16.5491 233.101 17.2 232.853 17.7527C232.606 18.2982 232.282 18.7491 231.882 19.1055C231.482 19.4618 231.032 19.7273 230.53 19.9018C230.035 20.0764 229.537 20.1636 229.035 20.1636H226.133V17.4473H229.112C229.199 17.4473 229.322 17.4364 229.482 17.4145C229.65 17.3855 229.813 17.3164 229.973 17.2073C230.141 17.0982 230.286 16.9345 230.41 16.7164C230.533 16.4909 230.595 16.1855 230.595 15.8C230.595 15.64 230.581 15.4473 230.552 15.2218C230.53 14.9891 230.497 14.7418 230.453 14.48C230.41 14.2182 230.359 13.9527 230.301 13.6836C230.25 13.4073 230.199 13.1491 230.148 12.9091C230.097 12.6618 230.046 12.44 229.995 12.2436C229.944 12.04 229.904 11.8836 229.875 11.7745L232.439 11ZM228.348 6.61455L230.312 4.62909L232.319 6.63636L230.333 8.62182L228.348 6.61455ZM241.101 20.1636C240.301 20.1636 239.614 20.1127 239.039 20.0109C238.465 19.9164 237.981 19.7745 237.589 19.5855C237.196 19.3891 236.879 19.1418 236.639 18.8436C236.407 18.5455 236.229 18.1964 236.105 17.7964C235.981 17.3964 235.898 16.9455 235.854 16.4436C235.818 15.9345 235.799 15.3745 235.799 14.7636V4.43273H238.516V14.7636C238.516 15.3455 238.534 15.8109 238.57 16.16C238.614 16.5091 238.719 16.7818 238.887 16.9782C239.061 17.1673 239.319 17.2945 239.661 17.36C240.01 17.4182 240.49 17.4473 241.101 17.4473V20.1636ZM248.759 18.1018C248.825 18.1018 248.926 18.0909 249.065 18.0691C249.21 18.04 249.356 17.96 249.501 17.8291C249.646 17.6982 249.774 17.4982 249.883 17.2291C249.999 16.9527 250.057 16.5673 250.057 16.0727C250.057 15.8836 250.021 15.6436 249.948 15.3527C249.883 15.0545 249.763 14.7673 249.588 14.4909C249.421 14.2073 249.192 13.9673 248.901 13.7709C248.617 13.5673 248.257 13.4655 247.821 13.4655C247.443 13.4655 247.134 13.5782 246.894 13.8036C246.654 14.0291 246.45 14.3091 246.283 14.6436C246.123 14.9782 245.985 15.3418 245.868 15.7345C245.759 16.12 245.639 16.4727 245.508 16.7927C245.777 16.9455 246.061 17.1018 246.359 17.2618C246.665 17.4145 246.963 17.5527 247.254 17.6764C247.545 17.8 247.817 17.9018 248.072 17.9818C248.334 18.0618 248.563 18.1018 248.759 18.1018ZM247.821 10.76C248.585 10.76 249.25 10.9018 249.817 11.1855C250.392 11.4691 250.865 11.8509 251.236 12.3309C251.614 12.8036 251.894 13.3527 252.076 13.9782C252.265 14.6036 252.359 15.2582 252.359 15.9418C252.359 16.6982 252.294 17.3418 252.163 17.8727C252.032 18.4036 251.857 18.8436 251.639 19.1927C251.428 19.5418 251.185 19.8145 250.908 20.0109C250.639 20.2145 250.366 20.3636 250.09 20.4582C249.821 20.56 249.559 20.6218 249.305 20.6436C249.05 20.6727 248.832 20.6873 248.65 20.6873C248.286 20.6873 247.941 20.6509 247.614 20.5782C247.286 20.5127 246.952 20.4145 246.61 20.2836C246.276 20.16 245.926 20.0073 245.563 19.8255C245.199 19.6364 244.803 19.4255 244.374 19.1927C244.046 19.5418 243.694 19.7927 243.316 19.9455C242.945 20.0909 242.508 20.1636 242.006 20.1636H240.665L240.643 17.4473H242.006C242.166 17.4473 242.305 17.4 242.421 17.3055C242.545 17.2109 242.654 17.08 242.748 16.9127C242.85 16.7382 242.941 16.5309 243.021 16.2909C243.108 16.0436 243.196 15.7709 243.283 15.4727C243.428 14.9491 243.603 14.4109 243.806 13.8582C244.01 13.2982 244.279 12.7891 244.614 12.3309C244.956 11.8727 245.385 11.4982 245.901 11.2073C246.417 10.9091 247.057 10.76 247.821 10.76ZM260.718 20.1636C259.918 20.1636 259.231 20.1127 258.657 20.0109C258.082 19.9164 257.598 19.7745 257.206 19.5855C256.813 19.3891 256.497 19.1418 256.257 18.8436C256.024 18.5455 255.846 18.1964 255.722 17.7964C255.598 17.3964 255.515 16.9455 255.471 16.4436C255.435 15.9345 255.417 15.3745 255.417 14.7636V4.43273H258.133V14.7636C258.133 15.3455 258.151 15.8109 258.188 16.16C258.231 16.5091 258.337 16.7818 258.504 16.9782C258.678 17.1673 258.937 17.2945 259.278 17.36C259.628 17.4182 260.108 17.4473 260.718 17.4473V20.1636ZM268.736 20.1418C267.405 20.1418 266.351 19.7964 265.573 19.1055C265.173 19.4764 264.729 19.7455 264.242 19.9127C263.755 20.08 263.253 20.1636 262.736 20.1636H260.282V17.4473H262.736C262.824 17.4473 262.947 17.4327 263.107 17.4036C263.275 17.3745 263.438 17.3055 263.598 17.1964C263.765 17.08 263.911 16.9127 264.035 16.6945C264.158 16.4691 264.22 16.16 264.22 15.7673V12.6255H266.936V15.7236C266.936 16.32 267.075 16.7564 267.351 17.0327C267.635 17.3018 268.096 17.4364 268.736 17.4364C268.824 17.4364 268.947 17.4218 269.107 17.3927C269.275 17.3564 269.438 17.28 269.598 17.1636C269.765 17.0473 269.911 16.8764 270.035 16.6509C270.158 16.4182 270.22 16.1091 270.22 15.7236V12.6255H272.925V15.7236C272.925 16.32 273.067 16.76 273.351 17.0436C273.642 17.32 274.111 17.4582 274.758 17.4582C274.853 17.4582 274.98 17.44 275.14 17.4036C275.307 17.36 275.471 17.28 275.631 17.1636C275.791 17.04 275.929 16.8655 276.045 16.64C276.162 16.4145 276.22 16.1091 276.22 15.7236C276.22 15.5636 276.205 15.3709 276.176 15.1455C276.155 14.92 276.122 14.6836 276.078 14.4364C276.042 14.1818 275.998 13.9273 275.947 13.6727C275.896 13.4109 275.845 13.1636 275.795 12.9309C275.744 12.6982 275.693 12.4873 275.642 12.2982C275.598 12.1091 275.562 11.96 275.533 11.8509L278.096 11.0109C278.111 11.0618 278.14 11.1782 278.184 11.36C278.227 11.5418 278.278 11.7673 278.336 12.0364C278.402 12.3055 278.467 12.6036 278.533 12.9309C278.598 13.2582 278.656 13.5891 278.707 13.9236C278.765 14.2509 278.813 14.5745 278.849 14.8945C278.885 15.2073 278.904 15.4836 278.904 15.7236C278.904 16.4655 278.78 17.1164 278.533 17.6764C278.293 18.2291 277.976 18.6909 277.584 19.0618C277.191 19.4255 276.747 19.6982 276.253 19.88C275.758 20.0618 275.26 20.1564 274.758 20.1636C273.405 20.1636 272.336 19.8073 271.551 19.0945C271.151 19.4655 270.707 19.7345 270.22 19.9018C269.74 20.0618 269.245 20.1418 268.736 20.1418Z" fill="#0077C0"/>
<path d="M106.049 58.2182C105.118 58.2182 104.26 58.0873 103.475 57.8255C102.699 57.5539 102.03 57.1758 101.467 56.6909C100.905 56.1964 100.464 55.6097 100.144 54.9309C99.8333 54.2521 99.6782 53.5006 99.6782 52.6764C99.6782 51.8618 99.78 51.1345 99.9836 50.4945C100.187 49.8448 100.459 49.2436 100.798 48.6909C101.147 48.1285 101.55 47.5952 102.005 47.0909C102.471 46.577 102.961 46.0485 103.475 45.5055L102.558 44.4727L105.235 42.0436C105.341 42.1697 105.467 42.3103 105.613 42.4655C105.758 42.6206 105.904 42.7806 106.049 42.9455C106.204 43.1103 106.355 43.2703 106.5 43.4255C106.645 43.5806 106.776 43.7212 106.893 43.8473C107.591 44.5939 108.27 45.3212 108.929 46.0291C109.598 46.7273 110.19 47.4303 110.704 48.1382C111.227 48.8364 111.649 49.5394 111.969 50.2473C112.27 50.9455 112.42 51.663 112.42 52.4V52.4727C112.41 53.3261 112.241 54.0921 111.911 54.7709C111.581 55.44 111.101 56.0606 110.471 56.6327C109.889 57.1273 109.225 57.5152 108.478 57.7964C107.741 58.0776 106.932 58.2182 106.049 58.2182ZM105.875 47.7309C105.487 48.1673 105.118 48.5794 104.769 48.9673C104.43 49.3552 104.134 49.743 103.882 50.1309C103.639 50.5188 103.455 50.9164 103.329 51.3236C103.213 51.663 103.155 52.0315 103.155 52.4291C103.155 52.5067 103.159 52.5891 103.169 52.6764C103.198 53.0352 103.305 53.3455 103.489 53.6073C103.673 53.8594 103.901 54.0727 104.173 54.2473C104.444 54.4121 104.745 54.5333 105.075 54.6109C105.404 54.6885 105.729 54.7273 106.049 54.7273C106.418 54.7273 106.772 54.6739 107.111 54.5673C107.45 54.4606 107.746 54.3103 107.998 54.1164C108.26 53.9224 108.468 53.6848 108.624 53.4036C108.779 53.1224 108.856 52.8121 108.856 52.4727C108.856 52.0558 108.774 51.6485 108.609 51.2509C108.444 50.8533 108.221 50.4606 107.94 50.0727C107.668 49.6848 107.353 49.297 106.995 48.9091C106.636 48.5212 106.262 48.1285 105.875 47.7309ZM124.419 58.2182H123.866C123.469 58.2182 123.09 58.1939 122.732 58.1455C122.383 58.097 122.038 57.9612 121.699 57.7382C121.583 58.9891 121.297 60.1236 120.841 61.1418C120.385 62.16 119.774 63.0279 119.008 63.7455C118.252 64.4727 117.345 65.0352 116.288 65.4327C115.231 65.8303 114.043 66.0291 112.724 66.0291H110.906V62.4073H112.724C113.655 62.4073 114.46 62.3103 115.139 62.1164C115.818 61.9224 116.375 61.6121 116.812 61.1855C117.248 60.7588 117.573 60.2012 117.786 59.5127C118 58.8339 118.106 58.0048 118.106 57.0255V48.1673H121.728V52.5164C121.728 52.9624 121.82 53.3212 122.004 53.5927C122.198 53.8642 122.417 54.0776 122.659 54.2327C122.911 54.3782 123.154 54.4752 123.386 54.5236C123.619 54.5721 123.779 54.5964 123.866 54.5964H124.419V58.2182ZM130.176 54.5964C130.37 54.5964 130.515 54.6497 130.612 54.7564C130.719 54.8533 130.772 54.9842 130.772 55.1491V57.6364C130.772 57.8497 130.719 58 130.612 58.0873C130.515 58.1745 130.37 58.2182 130.176 58.2182H124.096C123.883 58.2182 123.732 58.1745 123.645 58.0873C123.558 58 123.514 57.8497 123.514 57.6364V55.1491C123.514 54.9842 123.558 54.8533 123.645 54.7564C123.732 54.6497 123.883 54.5964 124.096 54.5964H130.176ZM136.207 54.5964C136.401 54.5964 136.547 54.6497 136.644 54.7564C136.75 54.8533 136.804 54.9842 136.804 55.1491V57.6364C136.804 57.8497 136.75 58 136.644 58.0873C136.547 58.1745 136.401 58.2182 136.207 58.2182H130.127C129.914 58.2182 129.764 58.1745 129.676 58.0873C129.589 58 129.545 57.8497 129.545 57.6364V55.1491C129.545 54.9842 129.589 54.8533 129.676 54.7564C129.764 54.6497 129.914 54.5964 130.127 54.5964H136.207ZM142.238 54.5964C142.432 54.5964 142.578 54.6497 142.675 54.7564C142.781 54.8533 142.835 54.9842 142.835 55.1491V57.6364C142.835 57.8497 142.781 58 142.675 58.0873C142.578 58.1745 142.432 58.2182 142.238 58.2182H136.158C135.945 58.2182 135.795 58.1745 135.708 58.0873C135.62 58 135.577 57.8497 135.577 57.6364V55.1491C135.577 54.9842 135.62 54.8533 135.708 54.7564C135.795 54.6497 135.945 54.5964 136.158 54.5964H142.238ZM148.27 54.5964C148.464 54.5964 148.609 54.6497 148.706 54.7564C148.813 54.8533 148.866 54.9842 148.866 55.1491V57.6364C148.866 57.8497 148.813 58 148.706 58.0873C148.609 58.1745 148.464 58.2182 148.27 58.2182H142.19C141.976 58.2182 141.826 58.1745 141.739 58.0873C141.651 58 141.608 57.8497 141.608 57.6364V55.1491C141.608 54.9842 141.651 54.8533 141.739 54.7564C141.826 54.6497 141.976 54.5964 142.19 54.5964H148.27ZM158.781 55.4691C158.868 55.4691 159.004 55.4545 159.188 55.4255C159.382 55.3867 159.576 55.28 159.77 55.1055C159.964 54.9309 160.134 54.6642 160.279 54.3055C160.434 53.937 160.512 53.423 160.512 52.7636C160.512 52.5115 160.463 52.1915 160.366 51.8036C160.279 51.4061 160.119 51.023 159.886 50.6545C159.663 50.2764 159.358 49.9564 158.97 49.6945C158.592 49.423 158.112 49.2873 157.53 49.2873C157.026 49.2873 156.614 49.4376 156.294 49.7382C155.974 50.0388 155.702 50.4121 155.479 50.8582C155.266 51.3042 155.082 51.7891 154.926 52.3127C154.781 52.8267 154.621 53.297 154.446 53.7236C154.805 53.9273 155.183 54.1358 155.581 54.3491C155.988 54.5527 156.386 54.737 156.774 54.9018C157.162 55.0667 157.525 55.2024 157.865 55.3091C158.214 55.4158 158.519 55.4691 158.781 55.4691ZM157.53 45.68C158.529 45.68 159.397 45.8594 160.134 46.2182C160.88 46.577 161.506 47.0618 162.01 47.6727C162.514 48.2836 162.892 48.9915 163.145 49.7964C163.406 50.6012 163.547 51.4448 163.566 52.3273C163.566 52.8703 163.673 53.297 163.886 53.6073C164.1 53.9079 164.342 54.1309 164.614 54.2764C164.885 54.4218 165.152 54.5139 165.414 54.5527C165.675 54.5818 165.855 54.5964 165.952 54.5964H166.359V58.2182H165.952C165.263 58.2182 164.628 58.1212 164.046 57.9273C163.474 57.7236 162.951 57.4667 162.475 57.1564C162.185 57.5636 161.865 57.8836 161.515 58.1164C161.166 58.3588 160.817 58.5382 160.468 58.6545C160.119 58.7709 159.785 58.8436 159.465 58.8727C159.145 58.9018 158.868 58.9164 158.635 58.9164C158.151 58.9164 157.69 58.8679 157.254 58.7709C156.817 58.6836 156.371 58.5527 155.915 58.3782C155.469 58.2133 155.004 58.0097 154.519 57.7673C154.034 57.5152 153.506 57.2339 152.934 56.9236C152.497 57.3891 152.027 57.7236 151.523 57.9273C151.028 58.1212 150.446 58.2182 149.777 58.2182H147.988L147.959 54.5964H149.777C149.991 54.5964 150.175 54.5333 150.33 54.4073C150.495 54.2812 150.64 54.1067 150.766 53.8836C150.902 53.6509 151.023 53.3745 151.13 53.0545C151.246 52.7248 151.363 52.3612 151.479 51.9636C151.673 51.2655 151.906 50.5479 152.177 49.8109C152.449 49.0642 152.808 48.3855 153.254 47.7745C153.709 47.1636 154.282 46.6642 154.97 46.2764C155.658 45.8788 156.512 45.68 157.53 45.68ZM164.478 45.2182C164.798 45.1212 165.142 45.0145 165.511 44.8982C165.869 44.7721 166.233 44.6364 166.602 44.4909C166.96 44.3455 167.309 44.1903 167.649 44.0255C167.988 43.8509 168.294 43.6618 168.565 43.4582C168.206 43.3418 167.882 43.1867 167.591 42.9927C167.29 42.7988 167.033 42.5758 166.82 42.3236C166.606 42.0715 166.442 41.8048 166.325 41.5236C166.199 41.2327 166.136 40.9321 166.136 40.6218C166.136 40.3018 166.199 40.0012 166.325 39.72C166.442 39.4776 166.597 39.2448 166.791 39.0218C166.985 38.7988 167.203 38.6048 167.445 38.44C167.678 38.2752 167.93 38.1442 168.202 38.0473C168.473 37.9503 168.745 37.9018 169.016 37.9018C169.365 37.9018 169.69 37.9842 169.991 38.1491C170.543 38.4497 170.936 38.8327 171.169 39.2982C171.402 39.7539 171.518 40.2533 171.518 40.7964C171.518 41.32 171.421 41.8533 171.227 42.3964C171.043 42.9394 170.786 43.4436 170.456 43.9091C170.136 44.3648 169.714 44.7673 169.191 45.1164C168.677 45.4558 168.148 45.7467 167.605 45.9891C167.062 46.2315 166.548 46.4303 166.063 46.5855C165.579 46.7309 165.21 46.8424 164.958 46.92L164.478 45.2182ZM169.045 39.6327C168.822 39.6327 168.575 39.6909 168.303 39.8073C168.022 39.9139 167.819 40.0836 167.692 40.3164C167.673 40.3552 167.663 40.4036 167.663 40.4618C167.663 40.5394 167.697 40.6509 167.765 40.7964C167.833 40.9418 167.964 41.1067 168.158 41.2909C168.342 41.4752 168.565 41.6448 168.827 41.8C169.089 41.9552 169.365 42.0521 169.656 42.0909C169.714 41.9455 169.763 41.7612 169.802 41.5382C169.85 41.3152 169.874 41.0873 169.874 40.8545C169.874 40.5539 169.811 40.2824 169.685 40.04C169.569 39.7976 169.351 39.6618 169.031 39.6327H169.045ZM172.113 54.5964C172.307 54.5964 172.453 54.6497 172.55 54.7564C172.656 54.8533 172.71 54.9842 172.71 55.1491V57.6364C172.71 57.8497 172.656 58 172.55 58.0873C172.453 58.1745 172.307 58.2182 172.113 58.2182H166.033C165.82 58.2182 165.67 58.1745 165.583 58.0873C165.495 58 165.452 57.8497 165.452 57.6364V55.1491C165.452 54.9842 165.495 54.8533 165.583 54.7564C165.67 54.6497 165.82 54.5964 166.033 54.5964H172.113ZM180.21 46C180.23 46.0679 180.268 46.2279 180.326 46.48C180.394 46.7321 180.467 47.0424 180.545 47.4109C180.622 47.7697 180.7 48.1721 180.777 48.6182C180.865 49.0642 180.942 49.5152 181.01 49.9709C181.088 50.417 181.146 50.8533 181.185 51.28C181.233 51.7067 181.257 52.08 181.257 52.4C181.257 53.3988 181.093 54.2667 180.763 55.0036C180.433 55.7309 180.002 56.3321 179.468 56.8073C178.935 57.2824 178.334 57.6364 177.665 57.8691C177.005 58.1018 176.341 58.2182 175.672 58.2182H171.803V54.5964H175.774C175.89 54.5964 176.055 54.5818 176.268 54.5527C176.491 54.5139 176.71 54.4218 176.923 54.2764C177.146 54.1309 177.34 53.9127 177.505 53.6218C177.67 53.3212 177.752 52.9139 177.752 52.4C177.752 52.1867 177.733 51.9297 177.694 51.6291C177.665 51.3188 177.621 50.9891 177.563 50.64C177.505 50.2909 177.437 49.937 177.359 49.5782C177.291 49.2097 177.223 48.8655 177.156 48.5455C177.088 48.2158 177.02 47.92 176.952 47.6582C176.884 47.3867 176.831 47.1782 176.792 47.0327L180.21 46ZM174.756 40.1527L177.374 37.5055L180.05 40.1818L177.403 42.8291L174.756 40.1527Z" fill="#FFB81C"/>
</svg>
