<svg width="460" height="507" viewBox="0 0 460 507" fill="none" xmlns="http://www.w3.org/2000/svg">
<g clip-path="url(#clip0_2_142)">
<path opacity="0.7" d="M23.5007 160.57C23.5007 160.57 -8.12092 242.232 36.3173 324.462C80.7555 406.692 172.286 450.132 245.544 487.278C318.803 524.423 394.874 506.332 431.021 445.493C467.168 384.655 417.592 341.226 417.524 254.471C417.456 167.715 430.511 144.747 383.498 71.455C336.485 -1.83743 221.238 -18.0679 134.086 36.2946C46.9334 90.6571 23.5007 160.57 23.5007 160.57Z" fill="#72C9FF"/>
<path d="M417.524 265.813C417.467 179.057 430.511 156.089 383.498 82.797C336.485 9.50463 221.238 -6.72585 134.086 47.6366C46.9334 101.999 23.5007 171.912 23.5007 171.912C23.5007 171.912 -8.12092 253.574 36.3173 335.804C76.9559 411.025 156.985 453.762 226.399 488.922H403.891C414.681 479.831 423.854 468.978 431.021 456.824C467.168 395.997 417.592 352.568 417.524 265.813Z" fill="#B8E4FF"/>
<path opacity="0.7" d="M417.524 265.813C417.467 179.057 430.511 156.089 383.498 82.797C336.485 9.50463 221.238 -6.72585 134.086 47.6366C46.9334 101.999 23.5007 171.912 23.5007 171.912C23.5007 171.912 -8.12092 253.574 36.3173 335.804C76.9559 411.025 156.985 453.762 226.399 488.922H403.891C414.681 479.831 423.854 468.978 431.021 456.824C467.168 395.997 417.592 352.568 417.524 265.813Z" fill="white"/>
<path d="M207.083 28.582C208.614 34.65 207.866 23.4781 210.872 9.79954C213.877 -3.87898 219.015 1.67863 219.015 1.67863" stroke="#003555" stroke-linecap="round" stroke-linejoin="round"/>
<path d="M206.142 14.6199L215.556 10.7523" stroke="#003555" stroke-linecap="round" stroke-linejoin="round"/>
<path d="M223.359 6.12471C223.359 6.12471 217.688 17.7617 226.206 22.7181" stroke="#003555" stroke-linecap="round" stroke-linejoin="round"/>
<path d="M231.344 2.81284C231.344 2.81284 240.633 7.97347 234.815 19.1567" stroke="#003555" stroke-linecap="round" stroke-linejoin="round"/>
<path d="M224.97 10.0604L231.628 14.9262" stroke="#003555" stroke-linecap="round" stroke-linejoin="round"/>
<path d="M230.187 7.9281L224.981 16.2191" stroke="#003555" stroke-linecap="round" stroke-linejoin="round"/>
<path d="M27.3343 302.72C27.3343 302.72 11.5348 302.493 11.4554 316.126" stroke="#003555" stroke-linecap="round" stroke-linejoin="round"/>
<path d="M26.0186 311.317C25.6897 309.309 18.8164 306.78 17.6255 312.02C16.4346 317.26 24.9752 314.118 27.6179 311.669C27.6179 311.669 22.7181 316.432 24.2152 317.771" stroke="#003555" stroke-linecap="round" stroke-linejoin="round"/>
<path d="M26.9828 319.256C26.9828 319.256 24.9072 321.854 22.6614 320.617" stroke="#003555" stroke-linecap="round" stroke-linejoin="round"/>
<path d="M40.8087 310.183L28.9562 322.217C28.9562 322.217 34.9222 316.171 38.3815 318.122C42.6915 320.481 37.0998 326.946 32.495 322.319" stroke="#003555" stroke-linecap="round" stroke-linejoin="round"/>
<path d="M46.7973 313.427C46.7973 313.427 49.9391 327.82 33.7199 328.33" stroke="#003555" stroke-linecap="round" stroke-linejoin="round"/>
<path d="M258.395 68.7442L264.1 69.6856L264.191 82.6723L276.712 59.8407L296.459 63.0845" stroke="#003555" stroke-linecap="round" stroke-linejoin="round"/>
<path d="M278.879 69.8444L287.567 85.1789" stroke="#003555" stroke-linecap="round" stroke-linejoin="round"/>
<path d="M289.79 71.6365L274.24 82.9899" stroke="#003555" stroke-linecap="round" stroke-linejoin="round"/>
<path d="M180.282 91.8594C178.819 89.9993 170.392 91.3263 172.104 97.2922C173.817 103.258 180.781 95.3074 182.108 91.3263C182.108 91.3263 179.783 98.9368 182.108 99.4472" stroke="#003555" stroke-linecap="round" stroke-linejoin="round"/>
<path d="M186.736 85.7233L184.853 92.4151C184.853 92.4151 185.794 89.0125 187.45 89.0125C189.48 89.0125 188.743 92.4718 186.146 91.7119" stroke="#003555" stroke-linecap="round" stroke-linejoin="round"/>
<path d="M345.604 168.214L341.634 182.562L350.322 192.055" stroke="#003555" stroke-linecap="round" stroke-linejoin="round"/>
<path d="M350.572 174.044L360.519 182.358" stroke="#003555" stroke-linecap="round" stroke-linejoin="round"/>
<path d="M357.422 171.991L353.124 182.551" stroke="#003555" stroke-linecap="round" stroke-linejoin="round"/>
<path d="M364.409 181.189C364.409 181.189 364.5 184.184 363.207 184.592" stroke="#003555" stroke-linecap="round" stroke-linejoin="round"/>
<path d="M365.668 170.732L371.657 175.189" stroke="#003555" stroke-linecap="round" stroke-linejoin="round"/>
<path d="M373.891 167.069L367.97 188.392" stroke="#003555" stroke-linecap="round" stroke-linejoin="round"/>
<path d="M374.174 159.662L383.793 170.551L379.698 182.46" stroke="#003555" stroke-linecap="round" stroke-linejoin="round"/>
<path d="M109.303 440.628L123.209 399.207L140.086 418.046L109.303 440.628Z" stroke="#003555" stroke-linecap="round" stroke-linejoin="round"/>
<path d="M135.957 421.074L132.396 417.002L136.184 413.713" stroke="#003555" stroke-linecap="round" stroke-linejoin="round"/>
<path d="M27.0336 207.913C34.2618 204.918 37.6943 196.632 34.7003 189.403C31.7063 182.175 23.4195 178.743 16.1912 181.737C8.96298 184.731 5.53047 193.018 8.52451 200.246C11.5185 207.474 19.8053 210.907 27.0336 207.913Z" stroke="#003555" stroke-linecap="round" stroke-linejoin="round"/>
<path d="M37.338 198.134C46.02 198.134 53.0581 191.096 53.0581 182.414C53.0581 173.732 46.02 166.694 37.338 166.694C28.656 166.694 21.6179 173.732 21.6179 182.414C21.6179 191.096 28.656 198.134 37.338 198.134Z" stroke="#003555" stroke-linecap="round" stroke-linejoin="round"/>
<path d="M24.4081 180.929L22.4913 187.586" stroke="#003555" stroke-linecap="round" stroke-linejoin="round"/>
<path d="M27.1188 181.757L24.4081 191.352" stroke="#003555" stroke-linecap="round" stroke-linejoin="round"/>
<path d="M29.9544 183.367L27.1188 194.221" stroke="#003555" stroke-linecap="round" stroke-linejoin="round"/>
<path d="M33.1188 186.554L31.0999 196.853" stroke="#003555" stroke-linecap="round" stroke-linejoin="round"/>
<path d="M34.9109 189.911L33.1188 197.567" stroke="#003555" stroke-linecap="round" stroke-linejoin="round"/>
<path d="M8.07554 176.664C6.83925 176.29 3.44797 179.511 6.07933 181.677C8.71069 183.843 9.37987 178.07 8.73338 175.859C8.73338 175.859 10.0604 180.021 11.2627 179.522" stroke="#003555" stroke-linecap="round" stroke-linejoin="round"/>
<path d="M26.3589 158.483L30.8958 166.74C30.8958 166.74 28.6274 162.611 30.2266 161.069C32.1774 159.163 34.7634 163.19 31.4969 164.88" stroke="#003555" stroke-linecap="round" stroke-linejoin="round"/>
<path d="M109.258 157.496L115.666 163.564" stroke="#003555" stroke-linecap="round" stroke-linejoin="round"/>
<path d="M115.666 155.919L110.29 163.927" stroke="#003555" stroke-linecap="round" stroke-linejoin="round"/>
<path d="M121.961 158.222L128.369 155.84" stroke="#003555" stroke-linecap="round" stroke-linejoin="round"/>
<path d="M131.443 149.148L135.345 152.596" stroke="#003555" stroke-linecap="round" stroke-linejoin="round"/>
<path d="M138.339 145.008L133.394 161.942" stroke="#003555" stroke-linecap="round" stroke-linejoin="round"/>
<path d="M418.443 141.594L418.17 128.642H427.959C427.959 128.642 422.537 131.636 425.032 138.6C427.528 145.564 431.543 141.594 431.543 141.594" stroke="#003555" stroke-linecap="round" stroke-linejoin="round"/>
<path d="M401.849 362.549L412.987 354.882L427.743 355.914L428.662 374.617L417.83 382.352L404.48 381.377L401.849 362.549Z" stroke="#003555" stroke-linecap="round" stroke-linejoin="round"/>
<path d="M404.481 381.377L415.256 373.619L428.662 374.617" stroke="#003555" stroke-linecap="round" stroke-linejoin="round"/>
<path d="M415.256 373.619L412.987 354.882" stroke="#003555" stroke-linecap="round" stroke-linejoin="round"/>
<path d="M401.849 362.549L416.571 364.25L427.743 355.914" stroke="#003555" stroke-linecap="round" stroke-linejoin="round"/>
<path d="M416.571 364.25L417.83 382.352" stroke="#003555" stroke-linecap="round" stroke-linejoin="round"/>
<path d="M403.879 222.157L403.403 247.087L425.248 237.163L403.879 222.157Z" stroke="#003555" stroke-linecap="round" stroke-linejoin="round"/>
<path d="M403.879 222.157L414.28 241.994" stroke="#003555" stroke-linecap="round" stroke-linejoin="round"/>
<path d="M412.613 238.807L415.153 237.582L416.843 240.973" stroke="#003555" stroke-linecap="round" stroke-linejoin="round"/>
<path d="M213.526 219.798L222.543 229.473" stroke="#003555" stroke-linecap="round" stroke-linejoin="round"/>
<path d="M222.622 218.494L215.034 228.883" stroke="#003555" stroke-linecap="round" stroke-linejoin="round"/>
<path d="M226.319 213.424C226.573 213.306 226.851 213.249 227.13 213.257C227.409 213.265 227.683 213.338 227.929 213.47C228.176 213.602 228.388 213.79 228.55 214.018C228.711 214.246 228.817 214.508 228.86 214.785C229.302 216.962 225.73 219.798 225.73 219.798H230.822" stroke="#003555" stroke-linecap="round" stroke-linejoin="round"/>
<path d="M72.9635 74.8349C73.3977 69.3398 75.2089 64.0426 78.2298 59.4319C81.2507 54.8212 85.3842 51.0456 90.2488 48.4533" stroke="#003555" stroke-linecap="round" stroke-linejoin="round"/>
<path d="M98.0407 109.428C89.7686 107.444 82.5908 102.324 78.022 95.1486" stroke="#003555" stroke-linecap="round" stroke-linejoin="round"/>
<path d="M138.475 80.0636C137.775 88.7498 133.657 96.8032 127.024 102.456C120.391 108.108 111.787 110.897 103.099 110.211" stroke="#003555" stroke-linecap="round" stroke-linejoin="round"/>
<path d="M108.328 44.6991C115.796 45.2977 122.836 48.4279 128.283 53.5717C133.73 58.7155 137.257 65.5647 138.282 72.9862" stroke="#003555" stroke-linecap="round" stroke-linejoin="round"/>
<path d="M119.897 102.748C115.312 105.32 110.114 106.598 104.86 106.444C99.6048 106.291 94.4905 104.712 90.0637 101.876C85.6369 99.0409 82.0641 95.0555 79.7273 90.3464C77.3905 85.6372 76.3777 80.3814 76.7971 75.1411" stroke="#003555" stroke-linecap="round" stroke-linejoin="round"/>
<path d="M78.6572 67.0202C80.1833 63.0527 82.563 59.4691 85.6278 56.5233C88.6925 53.5775 92.3674 51.3414 96.3922 49.9734C100.417 48.6054 104.693 48.1389 108.918 48.6069C113.144 49.0749 117.214 50.4661 120.842 52.6818C124.47 54.8975 127.566 57.8837 129.912 61.4289C132.258 64.974 133.795 68.9915 134.416 73.1969C135.037 77.4023 134.726 81.6927 133.504 85.7645C132.283 89.8362 130.182 93.5897 127.349 96.7591" stroke="#003555" stroke-linecap="round" stroke-linejoin="round"/>
<path d="M102.861 56.5855L105.708 77.4549L121.757 72.4644" stroke="#003555" stroke-linecap="round" stroke-linejoin="round"/>
<path d="M355.789 118.014C351.179 118.059 346.664 116.701 342.842 114.122C339.02 111.543 336.072 107.864 334.389 103.572C332.705 99.2793 332.365 94.5769 333.414 90.0872C334.463 85.5975 336.851 81.5323 340.262 78.4303" stroke="#003555" stroke-linecap="round" stroke-linejoin="round"/>
<path d="M377.101 102.623C375.996 105.883 374.163 108.848 371.742 111.294C369.321 113.741 366.375 115.604 363.127 116.744" stroke="#003555" stroke-linecap="round" stroke-linejoin="round"/>
<path d="M348.02 73.8028C353.711 71.8 359.965 72.1399 365.406 74.7475C370.847 77.3552 375.029 82.0172 377.033 87.7082" stroke="#003555" stroke-linecap="round" stroke-linejoin="round"/>
<path d="M366.802 78.6232C369.153 80.212 371.141 82.2812 372.634 84.6942C374.126 87.1073 375.091 89.8094 375.463 92.6224C375.835 95.4354 375.607 98.2953 374.793 101.014C373.98 103.732 372.599 106.247 370.742 108.393C368.885 110.538 366.595 112.266 364.022 113.462C361.449 114.658 358.651 115.295 355.814 115.33C352.976 115.366 350.164 114.8 347.561 113.669C344.959 112.538 342.626 110.869 340.715 108.77" stroke="#003555" stroke-linecap="round" stroke-linejoin="round"/>
<path d="M336.621 101.92C335.414 98.4849 335.163 94.7865 335.897 91.2203C336.63 87.6541 338.319 84.3545 340.783 81.6745C343.248 78.9946 346.395 77.0353 349.887 76.0063C353.379 74.9773 357.086 74.9174 360.609 75.833" stroke="#003555" stroke-linecap="round" stroke-linejoin="round"/>
<path d="M347.906 82.8651L355.574 95.262L348.575 104.336" stroke="#003555" stroke-linecap="round" stroke-linejoin="round"/>
<path d="M194.845 434.299C194.835 431.324 195.553 428.392 196.937 425.758C198.321 423.125 200.329 420.87 202.785 419.191" stroke="#003555" stroke-linecap="round" stroke-linejoin="round"/>
<path d="M226.274 446.866C224.111 449.141 221.397 450.819 218.395 451.739C215.393 452.658 212.205 452.788 209.139 452.115C206.072 451.442 203.231 449.99 200.89 447.898C198.549 445.806 196.788 443.146 195.775 440.174" stroke="#003555" stroke-linecap="round" stroke-linejoin="round"/>
<path d="M213.049 416.05C217.889 416.05 222.531 417.972 225.953 421.395C229.376 424.817 231.299 429.459 231.299 434.299" stroke="#003555" stroke-linecap="round" stroke-linejoin="round"/>
<path d="M213.049 450.393C208.781 450.393 204.687 448.698 201.669 445.679C198.651 442.661 196.955 438.567 196.955 434.299" stroke="#003555" stroke-linecap="round" stroke-linejoin="round"/>
<path d="M200.516 424.193C202.008 422.35 203.889 420.859 206.024 419.827C208.159 418.795 210.495 418.246 212.866 418.222C215.238 418.197 217.585 418.696 219.741 419.683C221.897 420.671 223.808 422.122 225.339 423.934C226.869 425.745 227.98 427.872 228.593 430.163C229.206 432.454 229.306 434.852 228.885 437.185C228.464 439.519 227.533 441.731 226.158 443.663C224.783 445.596 222.999 447.2 220.932 448.363" stroke="#003555" stroke-linecap="round" stroke-linejoin="round"/>
<path d="M210.554 445.244L213.049 434.299L209.556 425.361" stroke="#003555" stroke-linecap="round" stroke-linejoin="round"/>
<path d="M0.567078 489.33H459.433" stroke="#003555" stroke-linecap="round" stroke-linejoin="round"/>
<path d="M233.386 250.16L225.911 392.469L131.228 387.502L132.01 372.417L138.691 245.181L198.327 248.312L233.386 250.16Z" fill="white"/>
<mask id="mask0_2_142" style="mask-type:luminance" maskUnits="userSpaceOnUse" x="131" y="245" width="103" height="148">
<path d="M233.397 250.16L225.923 392.469L131.228 387.502L132.022 372.417L138.702 245.181L198.327 248.312L233.397 250.16Z" fill="white"/>
</mask>
<g mask="url(#mask0_2_142)">
<path opacity="0.2" d="M203.84 333.536L182.505 335.294L188.721 362.163L132.01 372.417L138.691 245.181L198.327 248.312L203.84 333.536Z" fill="black" fill-opacity="0.7"/>
</g>
<path d="M233.386 250.16L225.911 392.469L131.228 387.502L132.01 372.417L138.691 245.181L198.327 248.312L233.386 250.16Z" stroke="#263238" stroke-linecap="round" stroke-linejoin="round"/>
<path d="M145.383 254.913L170.018 256.217" stroke="#263238" stroke-width="2" stroke-linecap="round" stroke-linejoin="round"/>
<path d="M145.133 259.654L161.885 260.527" stroke="#263238" stroke-width="2" stroke-linecap="round" stroke-linejoin="round"/>
<path d="M150.555 271.132L221.431 274.852" stroke="#263238" stroke-width="2" stroke-linecap="round" stroke-linejoin="round"/>
<path d="M150.305 275.862L221.182 279.582" stroke="#263238" stroke-width="2" stroke-linecap="round" stroke-linejoin="round"/>
<path d="M150.01 281.385L210.463 284.561" stroke="#263238" stroke-width="2" stroke-linecap="round" stroke-linejoin="round"/>
<path d="M155.804 286.73L150.039 286.427L149.736 292.192L155.501 292.495L155.804 286.73Z" stroke="#263238" stroke-linecap="round" stroke-linejoin="round"/>
<path d="M166.252 287.278L160.487 286.975L160.184 292.74L165.949 293.043L166.252 287.278Z" stroke="#263238" stroke-linecap="round" stroke-linejoin="round"/>
<path d="M176.7 287.837L170.935 287.534L170.632 293.299L176.397 293.602L176.7 287.837Z" stroke="#263238" stroke-linecap="round" stroke-linejoin="round"/>
<path d="M187.137 288.385L181.372 288.082L181.069 293.847L186.834 294.15L187.137 288.385Z" stroke="#263238" stroke-linecap="round" stroke-linejoin="round"/>
<path d="M146.778 270.928C146.77 271.118 146.725 271.304 146.645 271.476C146.565 271.648 146.452 271.803 146.311 271.93C146.171 272.058 146.006 272.157 145.827 272.22C145.648 272.284 145.459 272.311 145.269 272.3C145.08 272.291 144.895 272.244 144.724 272.162C144.552 272.081 144.399 271.967 144.272 271.826C144.016 271.542 143.883 271.168 143.902 270.786C143.922 270.404 144.092 270.045 144.376 269.789C144.66 269.533 145.035 269.4 145.417 269.419C145.605 269.428 145.79 269.474 145.961 269.555C146.132 269.635 146.285 269.749 146.412 269.89C146.538 270.03 146.636 270.194 146.699 270.372C146.762 270.55 146.788 270.739 146.778 270.928Z" fill="#263238"/>
<path d="M149.103 298.727L219.979 302.447" stroke="#263238" stroke-width="2" stroke-linecap="round" stroke-linejoin="round"/>
<path d="M148.853 303.457L219.73 307.177" stroke="#263238" stroke-width="2" stroke-linecap="round" stroke-linejoin="round"/>
<path d="M148.558 308.98L209.023 312.156" stroke="#263238" stroke-width="2" stroke-linecap="round" stroke-linejoin="round"/>
<path d="M154.346 314.336L148.58 314.033L148.277 319.798L154.042 320.101L154.346 314.336Z" stroke="#263238" stroke-linecap="round" stroke-linejoin="round"/>
<path d="M164.794 314.873L159.029 314.569L158.726 320.335L164.491 320.638L164.794 314.873Z" stroke="#263238" stroke-linecap="round" stroke-linejoin="round"/>
<path d="M175.242 315.432L169.477 315.129L169.173 320.894L174.939 321.197L175.242 315.432Z" stroke="#263238" stroke-linecap="round" stroke-linejoin="round"/>
<path d="M185.69 315.979L179.925 315.676L179.622 321.441L185.387 321.745L185.69 315.979Z" stroke="#263238" stroke-linecap="round" stroke-linejoin="round"/>
<path d="M145.337 298.523C145.328 298.713 145.282 298.9 145.201 299.072C145.12 299.244 145.005 299.399 144.864 299.526C144.722 299.654 144.557 299.752 144.377 299.816C144.198 299.879 144.007 299.906 143.817 299.895C143.53 299.882 143.254 299.783 143.023 299.612C142.792 299.44 142.617 299.204 142.52 298.934C142.424 298.663 142.409 298.37 142.48 298.091C142.55 297.812 142.701 297.56 142.915 297.368C143.128 297.175 143.394 297.05 143.678 297.009C143.963 296.967 144.253 297.011 144.512 297.135C144.772 297.259 144.989 297.457 145.136 297.704C145.282 297.951 145.353 298.236 145.337 298.523Z" fill="#263238"/>
<path d="M147.651 326.322L218.539 330.043" stroke="#263238" stroke-width="2" stroke-linecap="round" stroke-linejoin="round"/>
<path d="M147.401 331.052L218.289 334.772" stroke="#263238" stroke-width="2" stroke-linecap="round" stroke-linejoin="round"/>
<path d="M147.118 336.576L207.571 339.751" stroke="#263238" stroke-width="2" stroke-linecap="round" stroke-linejoin="round"/>
<path d="M152.91 341.919L147.145 341.616L146.842 347.381L152.607 347.684L152.91 341.919Z" stroke="#263238" stroke-linecap="round" stroke-linejoin="round"/>
<path d="M164.578 342.435L158.805 342.146L158.516 347.919L164.289 348.208L164.578 342.435Z" stroke="#263238" stroke-width="1.00125" stroke-linecap="round" stroke-linejoin="round"/>
<path d="M173.783 343.026L168.018 342.723L167.715 348.488L173.48 348.791L173.783 343.026Z" stroke="#263238" stroke-linecap="round" stroke-linejoin="round"/>
<path d="M184.254 343.574L178.489 343.271L178.186 349.036L183.951 349.34L184.254 343.574Z" stroke="#263238" stroke-linecap="round" stroke-linejoin="round"/>
<path d="M143.885 326.118C143.877 326.309 143.83 326.495 143.749 326.667C143.668 326.84 143.553 326.994 143.412 327.122C143.27 327.249 143.105 327.348 142.926 327.411C142.746 327.474 142.556 327.501 142.366 327.491C142.166 327.495 141.968 327.458 141.783 327.382C141.599 327.307 141.432 327.194 141.293 327.051C141.154 326.907 141.046 326.737 140.976 326.55C140.905 326.364 140.874 326.165 140.885 325.965C140.895 325.766 140.946 325.571 141.035 325.392C141.124 325.214 141.248 325.056 141.401 324.927C141.554 324.799 141.732 324.704 141.923 324.647C142.114 324.59 142.315 324.574 142.513 324.598C142.703 324.607 142.89 324.653 143.062 324.735C143.234 324.816 143.389 324.931 143.516 325.072C143.644 325.213 143.742 325.379 143.806 325.558C143.869 325.738 143.896 325.928 143.885 326.118Z" fill="#263238"/>
<path d="M146.165 354.7L217.042 358.432" stroke="#263238" stroke-width="2" stroke-linecap="round" stroke-linejoin="round"/>
<path d="M145.916 359.441L216.792 363.161" stroke="#263238" stroke-width="2" stroke-linecap="round" stroke-linejoin="round"/>
<path d="M145.621 364.954L206.074 368.129" stroke="#263238" stroke-width="2" stroke-linecap="round" stroke-linejoin="round"/>
<path d="M151.399 370.304L145.634 370.001L145.331 375.766L151.096 376.069L151.399 370.304Z" stroke="#263238" stroke-linecap="round" stroke-linejoin="round"/>
<path d="M161.858 370.852L156.093 370.549L155.79 376.314L161.555 376.618L161.858 370.852Z" stroke="#263238" stroke-linecap="round" stroke-linejoin="round"/>
<path d="M172.307 371.4L166.541 371.097L166.238 376.862L172.003 377.165L172.307 371.4Z" stroke="#263238" stroke-linecap="round" stroke-linejoin="round"/>
<path d="M182.754 371.959L176.989 371.656L176.686 377.421L182.451 377.724L182.754 371.959Z" stroke="#263238" stroke-linecap="round" stroke-linejoin="round"/>
<path d="M142.388 354.507C142.367 354.89 142.195 355.248 141.91 355.503C141.625 355.758 141.25 355.89 140.868 355.869C140.486 355.847 140.128 355.676 139.873 355.39C139.618 355.105 139.486 354.731 139.507 354.349C139.528 353.967 139.7 353.609 139.985 353.353C140.27 353.098 140.645 352.967 141.027 352.988C141.409 353.009 141.767 353.181 142.022 353.466C142.278 353.751 142.409 354.125 142.388 354.507Z" fill="#263238"/>
<path d="M152.006 288.826L152.755 290.119L155.817 286.727" stroke="#263238" stroke-width="2" stroke-linecap="round" stroke-linejoin="round"/>
<path d="M171.469 317.169L172.218 318.462L175.292 315.071" stroke="#263238" stroke-width="2" stroke-linecap="round" stroke-linejoin="round"/>
<path d="M181.235 346.296L181.983 347.589L185.057 344.186" stroke="#263238" stroke-width="2" stroke-linecap="round" stroke-linejoin="round"/>
<path d="M158.097 372.292L158.846 373.585L161.919 370.182" stroke="#263238" stroke-width="2" stroke-linecap="round" stroke-linejoin="round"/>
<path d="M170.471 352.194L79.1109 377.589L40.9562 240.27L78.782 229.756L132.316 214.887L166.932 339.479L170.471 352.194Z" fill="white"/>
<mask id="mask1_2_142" style="mask-type:luminance" maskUnits="userSpaceOnUse" x="40" y="214" width="131" height="164">
<path d="M170.471 352.194L79.1109 377.589L40.9562 240.27L78.782 229.756L132.316 214.887L166.932 339.468L170.471 352.194Z" fill="white"/>
</mask>
<g mask="url(#mask1_2_142)">
<path opacity="0.2" d="M166.932 339.479L96.2941 344.039L78.782 229.756L132.316 214.887L166.932 339.479Z" fill="black" fill-opacity="0.7"/>
</g>
<path d="M170.471 352.194L79.1109 377.589L40.9562 240.27L78.782 229.756L132.316 214.887L166.932 339.479L170.471 352.194Z" stroke="#263238" stroke-linecap="round" stroke-linejoin="round"/>
<path d="M50.3814 247.382L74.1544 240.769" stroke="#263238" stroke-width="2" stroke-linecap="round" stroke-linejoin="round"/>
<path d="M51.6517 251.941L67.8142 247.45" stroke="#263238" stroke-width="2" stroke-linecap="round" stroke-linejoin="round"/>
<path d="M60.4418 261.106L128.823 242.108" stroke="#263238" stroke-width="2" stroke-linecap="round" stroke-linejoin="round"/>
<path d="M61.7122 265.665L130.093 246.667" stroke="#263238" stroke-width="2" stroke-linecap="round" stroke-linejoin="round"/>
<path d="M63.1866 270.996L121.519 254.788" stroke="#263238" stroke-width="2" stroke-linecap="round" stroke-linejoin="round"/>
<path d="M70.3946 274.222L64.8323 275.768L66.378 281.33L71.9403 279.785L70.3946 274.222Z" stroke="#263238" stroke-linecap="round" stroke-linejoin="round"/>
<path d="M80.4824 271.409L74.92 272.955L76.4657 278.517L82.0281 276.972L80.4824 271.409Z" stroke="#263238" stroke-linecap="round" stroke-linejoin="round"/>
<path d="M90.5587 268.608L84.9964 270.154L86.5421 275.716L92.1044 274.17L90.5587 268.608Z" stroke="#263238" stroke-linecap="round" stroke-linejoin="round"/>
<path d="M100.636 265.809L95.0732 267.355L96.6189 272.917L102.181 271.372L100.636 265.809Z" stroke="#263238" stroke-linecap="round" stroke-linejoin="round"/>
<path d="M56.8011 262.115C56.8776 262.389 56.8713 262.68 56.7828 262.95C56.6943 263.221 56.5277 263.459 56.3039 263.635C56.0801 263.811 55.8093 263.917 55.5255 263.939C55.2417 263.961 54.9577 263.898 54.7094 263.759C54.4612 263.62 54.2597 263.41 54.1304 263.157C54.0011 262.903 53.9499 262.617 53.9832 262.334C54.0164 262.052 54.1327 261.785 54.3173 261.568C54.5019 261.352 54.7465 261.195 55.0204 261.117C55.3888 261.015 55.7824 261.063 56.1157 261.25C56.4491 261.437 56.6954 261.748 56.8011 262.115Z" fill="#263238"/>
<path d="M67.8369 287.725L136.23 268.727" stroke="#263238" stroke-width="2" stroke-linecap="round" stroke-linejoin="round"/>
<path d="M69.1072 292.296L137.488 273.287" stroke="#263238" stroke-width="2" stroke-linecap="round" stroke-linejoin="round"/>
<path d="M70.5817 297.616L128.914 281.408" stroke="#263238" stroke-width="2" stroke-linecap="round" stroke-linejoin="round"/>
<path d="M77.7963 300.839L72.2339 302.385L73.7797 307.947L79.342 306.402L77.7963 300.839Z" stroke="#263238" stroke-linecap="round" stroke-linejoin="round"/>
<path d="M87.8727 298.038L82.3104 299.583L83.8561 305.146L89.4184 303.6L87.8727 298.038Z" stroke="#263238" stroke-linecap="round" stroke-linejoin="round"/>
<path d="M97.9491 295.236L92.3868 296.782L93.9325 302.344L99.4948 300.799L97.9491 295.236Z" stroke="#263238" stroke-linecap="round" stroke-linejoin="round"/>
<path d="M108.037 292.423L102.475 293.969L104.02 299.531L109.583 297.986L108.037 292.423Z" stroke="#263238" stroke-linecap="round" stroke-linejoin="round"/>
<path d="M64.2074 288.746C64.2848 289.023 64.2783 289.317 64.1887 289.59C64.099 289.863 63.9303 290.103 63.7038 290.281C63.4774 290.458 63.2035 290.564 62.9167 290.585C62.63 290.606 62.3434 290.542 62.0933 290.4C61.8432 290.258 61.6408 290.046 61.5118 289.789C61.3828 289.532 61.333 289.242 61.3687 288.957C61.4044 288.672 61.524 288.403 61.7124 288.186C61.9007 287.969 62.1493 287.813 62.4267 287.737C62.6099 287.685 62.8015 287.67 62.9905 287.693C63.1794 287.716 63.362 287.776 63.5275 287.87C63.6931 287.964 63.8385 288.09 63.9551 288.24C64.0718 288.39 64.1576 288.563 64.2074 288.746Z" fill="#263238"/>
<path d="M75.2319 314.357L143.625 295.347" stroke="#263238" stroke-width="2" stroke-linecap="round" stroke-linejoin="round"/>
<path d="M76.5022 318.916L144.895 299.918" stroke="#263238" stroke-width="2" stroke-linecap="round" stroke-linejoin="round"/>
<path d="M77.988 324.247L136.309 308.039" stroke="#263238" stroke-width="2" stroke-linecap="round" stroke-linejoin="round"/>
<path d="M85.1867 327.456L79.6243 329.002L81.17 334.564L86.7324 333.019L85.1867 327.456Z" stroke="#263238" stroke-linecap="round" stroke-linejoin="round"/>
<path d="M95.2631 324.655L89.7007 326.2L91.2465 331.763L96.8088 330.217L95.2631 324.655Z" stroke="#263238" stroke-linecap="round" stroke-linejoin="round"/>
<path d="M105.351 321.853L99.7885 323.399L101.334 328.961L106.897 327.415L105.351 321.853Z" stroke="#263238" stroke-linecap="round" stroke-linejoin="round"/>
<path d="M115.427 319.052L109.865 320.597L111.411 326.16L116.973 324.614L115.427 319.052Z" stroke="#263238" stroke-linecap="round" stroke-linejoin="round"/>
<path d="M71.6024 315.366C71.6799 315.643 71.6733 315.937 71.5837 316.21C71.494 316.483 71.3253 316.723 71.0989 316.9C70.8724 317.078 70.5985 317.184 70.3118 317.205C70.025 317.226 69.7385 317.162 69.4883 317.02C69.2382 316.878 69.0358 316.665 68.9068 316.408C68.7778 316.152 68.728 315.862 68.7637 315.577C68.7995 315.291 68.9191 315.023 69.1074 314.806C69.2958 314.589 69.5444 314.432 69.8217 314.357C70.0049 314.305 70.1965 314.29 70.3855 314.313C70.5744 314.336 70.757 314.396 70.9226 314.49C71.0881 314.584 71.2335 314.71 71.3502 314.86C71.4669 315.01 71.5526 315.182 71.6024 315.366Z" fill="#263238"/>
<path d="M82.8424 341.736L151.235 322.738" stroke="#263238" stroke-width="2" stroke-linecap="round" stroke-linejoin="round"/>
<path d="M84.1127 346.307L152.505 327.298" stroke="#263238" stroke-width="2" stroke-linecap="round" stroke-linejoin="round"/>
<path d="M85.5985 351.627L143.919 335.419" stroke="#263238" stroke-width="2" stroke-linecap="round" stroke-linejoin="round"/>
<path d="M92.7983 354.849L87.236 356.395L88.7817 361.957L94.344 360.412L92.7983 354.849Z" stroke="#263238" stroke-linecap="round" stroke-linejoin="round"/>
<path d="M102.886 352.048L97.3237 353.593L98.8694 359.156L104.432 357.61L102.886 352.048Z" stroke="#263238" stroke-linecap="round" stroke-linejoin="round"/>
<path d="M112.962 349.246L107.4 350.792L108.946 356.354L114.508 354.808L112.962 349.246Z" stroke="#263238" stroke-linecap="round" stroke-linejoin="round"/>
<path d="M123.05 346.445L117.488 347.99L119.034 353.553L124.596 352.007L123.05 346.445Z" stroke="#263238" stroke-linecap="round" stroke-linejoin="round"/>
<path d="M79.213 342.746C79.2926 343.022 79.2882 343.316 79.2003 343.59C79.1124 343.865 78.945 344.106 78.7194 344.285C78.4938 344.464 78.2202 344.572 77.9333 344.594C77.6463 344.617 77.3591 344.554 77.108 344.414C76.8569 344.273 76.6533 344.061 76.5231 343.804C76.3929 343.547 76.3419 343.258 76.3767 342.972C76.4114 342.686 76.5303 342.417 76.7183 342.199C76.9062 341.981 77.1548 341.824 77.4323 341.748C77.6147 341.696 77.8056 341.681 77.994 341.703C78.1823 341.725 78.3645 341.784 78.5299 341.877C78.6954 341.97 78.8409 342.094 78.9581 342.243C79.0753 342.392 79.1619 342.563 79.213 342.746Z" fill="#263238"/>
<path d="M76.9332 274.773L78.0561 275.76L79.8822 271.563" stroke="#263238" stroke-width="2" stroke-linecap="round" stroke-linejoin="round"/>
<path d="M74.1998 304.478L75.3113 305.464L77.1487 301.268" stroke="#263238" stroke-width="2" stroke-linecap="round" stroke-linejoin="round"/>
<path d="M81.5834 330.825L82.7063 331.812L84.5437 327.615" stroke="#263238" stroke-width="2" stroke-linecap="round" stroke-linejoin="round"/>
<path d="M109.349 352.409L110.472 353.396L112.298 349.199" stroke="#263238" stroke-width="2" stroke-linecap="round" stroke-linejoin="round"/>
<path d="M179.395 183.179L85.0104 192.25L98.6449 334.109L193.03 325.038L179.395 183.179Z" fill="white" stroke="#263238" stroke-linecap="round" stroke-linejoin="round"/>
<path d="M93.0503 200.891L117.606 198.531" stroke="#263238" stroke-width="2" stroke-linecap="round" stroke-linejoin="round"/>
<path d="M93.504 205.609L110.199 204.01" stroke="#263238" stroke-width="2" stroke-linecap="round" stroke-linejoin="round"/>
<path d="M100.559 216.168L171.208 209.374" stroke="#263238" stroke-width="2" stroke-linecap="round" stroke-linejoin="round"/>
<path d="M101.012 220.887L171.662 214.093" stroke="#263238" stroke-width="2" stroke-linecap="round" stroke-linejoin="round"/>
<path d="M101.534 226.388L161.794 220.592" stroke="#263238" stroke-width="2" stroke-linecap="round" stroke-linejoin="round"/>
<path d="M108.076 230.801L102.33 231.353L102.882 237.1L108.629 236.548L108.076 230.801Z" stroke="#263238" stroke-linecap="round" stroke-linejoin="round"/>
<path d="M118.492 229.798L112.746 230.35L113.298 236.097L119.045 235.545L118.492 229.798Z" stroke="#263238" stroke-linecap="round" stroke-linejoin="round"/>
<path d="M128.92 228.805L123.173 229.358L123.726 235.104L129.472 234.552L128.92 228.805Z" stroke="#263238" stroke-linecap="round" stroke-linejoin="round"/>
<path d="M139.324 227.791L133.577 228.344L134.129 234.09L139.876 233.538L139.324 227.791Z" stroke="#263238" stroke-linecap="round" stroke-linejoin="round"/>
<path d="M96.8045 216.531C96.8325 216.817 96.7749 217.106 96.639 217.359C96.5031 217.612 96.295 217.82 96.0411 217.955C95.7872 218.09 95.4989 218.146 95.2128 218.117C94.9267 218.088 94.6557 217.975 94.4342 217.791C94.2126 217.608 94.0505 217.363 93.9683 217.087C93.8862 216.812 93.8877 216.518 93.9728 216.243C94.0578 215.969 94.2225 215.726 94.446 215.545C94.6694 215.364 94.9416 215.253 95.228 215.227C95.4173 215.208 95.6084 215.227 95.7904 215.283C95.9723 215.338 96.1415 215.429 96.2881 215.551C96.4346 215.672 96.5558 215.821 96.6444 215.989C96.733 216.158 96.7874 216.342 96.8045 216.531Z" fill="#263238"/>
<path d="M103.201 243.673L173.851 236.89" stroke="#263238" stroke-width="2" stroke-linecap="round" stroke-linejoin="round"/>
<path d="M103.655 248.391L174.305 241.597" stroke="#263238" stroke-width="2" stroke-linecap="round" stroke-linejoin="round"/>
<path d="M104.177 253.892L164.437 248.096" stroke="#263238" stroke-width="2" stroke-linecap="round" stroke-linejoin="round"/>
<path d="M110.73 258.301L104.983 258.853L105.535 264.6L111.282 264.047L110.73 258.301Z" stroke="#263238" stroke-linecap="round" stroke-linejoin="round"/>
<path d="M121.134 257.309L115.388 257.862L115.94 263.608L121.687 263.056L121.134 257.309Z" stroke="#263238" stroke-linecap="round" stroke-linejoin="round"/>
<path d="M131.551 256.306L125.804 256.859L126.356 262.605L132.103 262.053L131.551 256.306Z" stroke="#263238" stroke-linecap="round" stroke-linejoin="round"/>
<path d="M141.967 255.314L136.22 255.866L136.772 261.613L142.519 261.06L141.967 255.314Z" stroke="#263238" stroke-linecap="round" stroke-linejoin="round"/>
<path d="M99.4472 244.036C99.4752 244.322 99.4176 244.61 99.2817 244.863C99.1458 245.117 98.9377 245.324 98.6838 245.459C98.4299 245.594 98.1416 245.651 97.8555 245.622C97.5694 245.593 97.2984 245.479 97.0769 245.296C96.8553 245.113 96.6932 244.868 96.611 244.592C96.5289 244.316 96.5304 244.023 96.6155 243.748C96.7005 243.473 96.8652 243.23 97.0886 243.049C97.3121 242.868 97.5843 242.758 97.8707 242.731C98.2524 242.697 98.6324 242.814 98.9278 243.059C99.2231 243.303 99.4098 243.654 99.4472 244.036Z" fill="#263238"/>
<path d="M105.844 271.177L176.494 264.395" stroke="#263238" stroke-width="2" stroke-linecap="round" stroke-linejoin="round"/>
<path d="M106.298 275.896L176.947 269.113" stroke="#263238" stroke-width="2" stroke-linecap="round" stroke-linejoin="round"/>
<path d="M106.82 281.397L167.08 275.612" stroke="#263238" stroke-width="2" stroke-linecap="round" stroke-linejoin="round"/>
<path d="M113.372 285.812L107.625 286.364L108.177 292.111L113.924 291.559L113.372 285.812Z" stroke="#263238" stroke-linecap="round" stroke-linejoin="round"/>
<path d="M123.776 284.809L118.03 285.361L118.582 291.108L124.329 290.556L123.776 284.809Z" stroke="#263238" stroke-linecap="round" stroke-linejoin="round"/>
<path d="M134.204 283.806L128.457 284.358L129.01 290.105L134.756 289.553L134.204 283.806Z" stroke="#263238" stroke-linecap="round" stroke-linejoin="round"/>
<path d="M144.62 282.813L138.873 283.366L139.426 289.112L145.172 288.56L144.62 282.813Z" stroke="#263238" stroke-linecap="round" stroke-linejoin="round"/>
<path d="M102.079 271.54C102.104 271.824 102.045 272.109 101.909 272.359C101.773 272.609 101.566 272.814 101.313 272.946C101.061 273.078 100.775 273.133 100.492 273.103C100.209 273.073 99.9407 272.959 99.7218 272.777C99.503 272.595 99.3431 272.351 99.2625 272.078C99.1818 271.805 99.184 271.514 99.2687 271.242C99.3534 270.97 99.5169 270.729 99.7384 270.55C99.96 270.371 100.23 270.262 100.513 270.236C100.702 270.219 100.892 270.239 101.072 270.295C101.253 270.351 101.421 270.443 101.566 270.564C101.711 270.685 101.832 270.834 101.919 271.001C102.007 271.169 102.061 271.352 102.079 271.54Z" fill="#263238"/>
<path d="M108.555 299.476L179.216 292.682" stroke="#263238" stroke-width="2" stroke-linecap="round" stroke-linejoin="round"/>
<path d="M109.009 304.183L179.67 297.4" stroke="#263238" stroke-width="2" stroke-linecap="round" stroke-linejoin="round"/>
<path d="M109.542 309.684L169.802 303.899" stroke="#263238" stroke-width="2" stroke-linecap="round" stroke-linejoin="round"/>
<path d="M116.089 314.107L110.343 314.659L110.895 320.406L116.641 319.853L116.089 314.107Z" stroke="#263238" stroke-linecap="round" stroke-linejoin="round"/>
<path d="M126.505 313.103L120.759 313.655L121.311 319.402L127.058 318.849L126.505 313.103Z" stroke="#263238" stroke-linecap="round" stroke-linejoin="round"/>
<path d="M136.92 312.1L131.174 312.652L131.726 318.399L137.473 317.847L136.92 312.1Z" stroke="#263238" stroke-linecap="round" stroke-linejoin="round"/>
<path d="M147.337 311.097L141.59 311.649L142.142 317.396L147.889 316.844L147.337 311.097Z" stroke="#263238" stroke-linecap="round" stroke-linejoin="round"/>
<path d="M104.801 299.827C104.808 300.193 104.677 300.548 104.435 300.821C104.192 301.094 103.855 301.266 103.491 301.302C103.128 301.338 102.764 301.235 102.472 301.014C102.181 300.793 101.984 300.471 101.92 300.111C101.885 299.729 102.003 299.349 102.247 299.054C102.491 298.758 102.843 298.572 103.224 298.534C103.413 298.516 103.603 298.534 103.784 298.589C103.965 298.644 104.134 298.734 104.281 298.854C104.427 298.974 104.548 299.122 104.638 299.289C104.727 299.456 104.782 299.639 104.801 299.827Z" fill="#263238"/>
<path d="M104.608 233.454L105.538 234.622L108.067 230.811" stroke="#263238" stroke-width="2" stroke-linecap="round" stroke-linejoin="round"/>
<path d="M128.041 258.61L128.971 259.779L131.511 255.968" stroke="#263238" stroke-width="2" stroke-linecap="round" stroke-linejoin="round"/>
<path d="M120.328 287.691L121.258 288.86L123.799 285.049" stroke="#263238" stroke-width="2" stroke-linecap="round" stroke-linejoin="round"/>
<path d="M143.727 313.767L144.657 314.935L147.186 311.124" stroke="#263238" stroke-width="2" stroke-linecap="round" stroke-linejoin="round"/>
<path d="M294.826 127.247H236.221C234.152 127.247 232.167 128.069 230.703 129.532C229.24 130.996 228.418 132.98 228.418 135.05V185.42C228.418 187.49 229.24 189.474 230.703 190.938C232.167 192.401 234.152 193.223 236.221 193.223H262.194L277.075 211.155L273.344 193.223H294.826C296.889 193.214 298.865 192.388 300.321 190.926C301.777 189.463 302.595 187.484 302.595 185.42V135.05C302.595 132.986 301.777 131.007 300.321 129.544C298.865 128.082 296.889 127.256 294.826 127.247Z" fill="#EAF7FF" stroke="#263238" stroke-linecap="round" stroke-linejoin="round"/>
<path d="M270.213 154.876V149.545L266.221 149.205C265.987 148.371 265.655 147.568 265.234 146.812L267.809 143.749L264.032 139.984L260.969 142.558C260.214 142.135 259.411 141.804 258.576 141.572L258.236 137.579H252.905L252.565 141.572C251.731 141.804 250.927 142.135 250.172 142.558L247.109 139.984L243.333 143.749L245.885 146.857C245.46 147.613 245.125 148.416 244.886 149.25L240.894 149.59V154.921L244.886 155.273C245.125 156.107 245.46 156.91 245.885 157.666L243.299 160.728L247.075 164.494L250.138 161.919C250.893 162.343 251.697 162.674 252.531 162.906L252.871 166.898H258.202L258.542 162.906C259.377 162.674 260.18 162.343 260.935 161.919L263.998 164.494L267.775 160.728L265.2 157.666C265.621 156.91 265.953 156.106 266.187 155.273L270.213 154.876ZM255.571 158.415C254.343 158.417 253.143 158.055 252.121 157.375C251.099 156.694 250.302 155.726 249.831 154.593C249.359 153.459 249.235 152.211 249.473 151.007C249.711 149.803 250.301 148.696 251.168 147.828C252.036 146.959 253.141 146.367 254.345 146.126C255.549 145.886 256.797 146.008 257.931 146.478C259.065 146.947 260.035 147.742 260.717 148.762C261.399 149.783 261.763 150.983 261.763 152.21C261.765 153.025 261.606 153.831 261.295 154.584C260.985 155.336 260.529 156.02 259.954 156.597C259.378 157.173 258.695 157.63 257.943 157.942C257.191 158.254 256.385 158.415 255.571 158.415Z" fill="#2BAEFF"/>
<path d="M287.85 166.774V162.985L285.003 162.736C284.838 162.143 284.602 161.571 284.3 161.035L286.137 158.857L283.461 156.18L281.272 158.006C280.734 157.707 280.163 157.471 279.57 157.303L279.332 154.468H275.533L275.294 157.303C274.699 157.471 274.124 157.707 273.582 158.006L271.404 156.18L268.727 158.857L270.554 161.035C270.255 161.572 270.023 162.143 269.862 162.736L267.015 162.985V166.774L269.862 167.023C270.021 167.617 270.254 168.188 270.554 168.724L268.727 170.902L271.404 173.59L273.582 171.753C274.122 172.057 274.697 172.293 275.294 172.456L275.533 175.303H279.332L279.57 172.456C280.164 172.293 280.736 172.056 281.272 171.753L283.461 173.59L286.137 170.902L284.3 168.724C284.604 168.189 284.84 167.617 285.003 167.023L287.85 166.774ZM277.427 169.292C276.554 169.292 275.701 169.033 274.976 168.548C274.25 168.063 273.685 167.374 273.351 166.568C273.017 165.762 272.929 164.875 273.1 164.019C273.27 163.163 273.69 162.377 274.307 161.76C274.924 161.143 275.71 160.723 276.566 160.552C277.422 160.382 278.309 160.469 279.115 160.803C279.921 161.137 280.61 161.703 281.095 162.428C281.58 163.154 281.839 164.007 281.839 164.88C281.839 166.05 281.374 167.172 280.547 167.999C279.719 168.827 278.597 169.292 277.427 169.292Z" fill="#D8586A"/>
<path d="M269.295 175.609V172.944L267.264 172.762C267.148 172.339 266.981 171.931 266.765 171.549L268.07 170.006L266.164 168.089L264.61 169.394C264.228 169.186 263.825 169.019 263.408 168.895L263.227 166.876H260.527L260.357 168.895C259.936 169.017 259.529 169.184 259.143 169.394L257.59 168.089L255.684 170.006L256.988 171.549C256.778 171.934 256.61 172.341 256.489 172.762L254.47 172.944V175.632L256.489 175.813C256.61 176.235 256.778 176.642 256.988 177.027L255.684 178.569L257.59 180.486L259.143 179.182C259.529 179.392 259.936 179.559 260.357 179.681L260.527 181.7H263.227L263.408 179.681C263.825 179.557 264.228 179.39 264.61 179.182L266.164 180.486L268.07 178.569L266.765 177.027C266.981 176.644 267.148 176.237 267.264 175.813L269.295 175.609ZM261.877 177.401C261.255 177.401 260.647 177.217 260.13 176.871C259.613 176.525 259.211 176.034 258.973 175.459C258.736 174.884 258.674 174.252 258.796 173.642C258.918 173.033 259.219 172.473 259.659 172.034C260.1 171.595 260.661 171.297 261.271 171.177C261.881 171.057 262.513 171.121 263.087 171.36C263.661 171.6 264.151 172.004 264.495 172.522C264.839 173.04 265.021 173.649 265.019 174.271C265.016 175.102 264.683 175.898 264.094 176.485C263.506 177.072 262.708 177.401 261.877 177.401Z" fill="#FFC84E"/>
<path d="M263.952 320.81L309.638 489.331H316.466L270.78 320.81H263.952Z" fill="#757575" stroke="#263238" stroke-linecap="round" stroke-linejoin="round"/>
<path d="M366.836 441.558H280.24V448.613H366.836V441.558Z" fill="#999999" stroke="#263238" stroke-linecap="round" stroke-linejoin="round"/>
<path d="M413.044 282.962L357.093 489.387H350.288L406.227 282.962C408.291 275.351 403.562 269.158 395.679 269.158H347.475C339.604 269.158 331.506 275.351 329.442 282.962L273.48 489.387H266.675L322.614 282.962C325.676 271.699 337.608 262.546 349.267 262.546H397.483C409.108 262.546 416.095 271.688 413.044 282.962Z" fill="#757575" stroke="#263238" stroke-linecap="round" stroke-linejoin="round"/>
<path d="M413.929 283.018L400.046 334.262C399.375 336.418 398.054 338.314 396.263 339.689C394.471 341.064 392.298 341.85 390.042 341.94H310.829C309.875 342.012 308.918 341.845 308.044 341.454C307.171 341.062 306.409 340.459 305.828 339.699C305.247 338.938 304.865 338.045 304.716 337.1C304.567 336.154 304.657 335.187 304.977 334.285L318.871 283.041C319.547 280.89 320.87 279 322.661 277.63C324.451 276.259 326.622 275.476 328.874 275.385H408.076C409.027 275.318 409.98 275.487 410.849 275.878C411.718 276.27 412.477 276.87 413.057 277.627C413.637 278.383 414.02 279.272 414.172 280.213C414.324 281.154 414.241 282.118 413.929 283.018Z" fill="#FFB81C"/>
<mask id="mask2_2_142" style="mask-type:luminance" maskUnits="userSpaceOnUse" x="304" y="275" width="111" height="67">
<path d="M413.929 283.018L400.046 334.262C399.375 336.418 398.054 338.314 396.263 339.689C394.471 341.064 392.298 341.85 390.042 341.94H310.829C309.875 342.012 308.918 341.845 308.044 341.454C307.171 341.062 306.409 340.459 305.828 339.699C305.247 338.938 304.865 338.045 304.716 337.1C304.567 336.154 304.657 335.187 304.977 334.285L318.871 283.041C319.547 280.89 320.87 279 322.661 277.63C324.451 276.259 326.622 275.476 328.874 275.385H408.076C409.027 275.318 409.98 275.487 410.849 275.878C411.718 276.27 412.477 276.87 413.057 277.627C413.637 278.383 414.02 279.272 414.172 280.213C414.324 281.154 414.241 282.118 413.929 283.018Z" fill="white"/>
</mask>
<g mask="url(#mask2_2_142)">
<path opacity="0.2" d="M413.929 283.019L400.046 334.262C399.375 336.418 398.054 338.314 396.263 339.689C394.471 341.064 392.298 341.85 390.042 341.941H310.829C309.875 342.013 308.918 341.845 308.044 341.454C307.171 341.062 306.409 340.459 305.828 339.699C305.247 338.938 304.865 338.045 304.716 337.1C304.567 336.154 304.657 335.187 304.977 334.285L318.871 283.041C319.547 280.89 320.87 279 322.661 277.63C324.451 276.26 326.622 275.476 328.874 275.385H369.831C387.536 293.533 385.279 326.98 384.122 337.075C385.97 336.63 387.672 335.716 389.063 334.42C390.454 333.125 391.487 331.492 392.061 329.68L405.921 278.425C406.205 277.433 406.263 276.391 406.091 275.374H408.076C409.028 275.306 409.982 275.475 410.853 275.867C411.723 276.259 412.483 276.861 413.063 277.619C413.643 278.376 414.026 279.267 414.177 280.209C414.328 281.152 414.243 282.117 413.929 283.019Z" fill="black" fill-opacity="0.7"/>
</g>
<path d="M413.929 283.018L400.046 334.262C399.375 336.418 398.054 338.314 396.263 339.689C394.471 341.064 392.298 341.85 390.042 341.94H310.829C309.875 342.012 308.918 341.845 308.044 341.454C307.171 341.062 306.409 340.459 305.828 339.699C305.247 338.938 304.865 338.045 304.716 337.1C304.567 336.154 304.657 335.187 304.977 334.285L318.871 283.041C319.547 280.89 320.87 279 322.661 277.63C324.451 276.259 326.622 275.476 328.874 275.385H408.076C409.027 275.318 409.98 275.487 410.849 275.878C411.718 276.27 412.477 276.87 413.057 277.627C413.637 278.383 414.02 279.272 414.172 280.213C414.324 281.154 414.241 282.118 413.929 283.018Z" stroke="#263238" stroke-linecap="round" stroke-linejoin="round"/>
<path d="M367.358 393.785L393.252 489.331H400.091L374.186 393.785H367.358Z" fill="#757575" stroke="#263238" stroke-linecap="round" stroke-linejoin="round"/>
<path d="M374.22 382.772V392.118H272.232V382.772C272.232 380.949 272.956 379.201 274.245 377.912C275.534 376.623 277.283 375.899 279.105 375.899H367.335C368.846 375.897 370.315 376.393 371.516 377.309C372.717 378.226 373.584 379.511 373.982 380.969C374.142 381.556 374.223 382.163 374.22 382.772Z" fill="#FFB81C"/>
<mask id="mask3_2_142" style="mask-type:luminance" maskUnits="userSpaceOnUse" x="272" y="375" width="103" height="18">
<path d="M374.22 382.772V392.118H272.232V382.772C272.232 380.949 272.956 379.201 274.245 377.912C275.534 376.623 277.283 375.899 279.105 375.899H367.335C368.846 375.897 370.315 376.393 371.516 377.309C372.717 378.226 373.584 379.511 373.982 380.969C374.143 381.556 374.223 382.163 374.22 382.772Z" fill="white"/>
</mask>
<g mask="url(#mask3_2_142)">
<path opacity="0.2" d="M373.982 381.014C370.681 384.893 364.761 388.84 354.576 392.163H272.232V382.772C272.232 380.949 272.956 379.201 274.245 377.912C275.534 376.623 277.283 375.899 279.105 375.899H367.335C368.852 375.9 370.326 376.402 371.527 377.327C372.729 378.252 373.592 379.548 373.982 381.014Z" fill="black" fill-opacity="0.7"/>
</g>
<path d="M374.22 382.772V392.118H272.232V382.772C272.232 380.949 272.956 379.201 274.245 377.912C275.534 376.623 277.283 375.899 279.105 375.899H367.335C368.846 375.897 370.315 376.393 371.516 377.309C372.717 378.226 373.584 379.511 373.982 380.969C374.142 381.556 374.223 382.163 374.22 382.772Z" stroke="#263238" stroke-linecap="round" stroke-linejoin="round"/>
<path d="M377.679 389.305H269.658C268.586 389.305 267.718 390.173 267.718 391.244V396.133C267.718 397.204 268.586 398.072 269.658 398.072H377.679C378.75 398.072 379.619 397.204 379.619 396.133V391.244C379.619 390.173 378.75 389.305 377.679 389.305Z" fill="#999999" stroke="#263238" stroke-linecap="round" stroke-linejoin="round"/>
<path d="M268.92 389.577C264.032 394.556 287.725 472.794 287.725 472.794C285.139 475.062 281.329 476.106 277.722 476.582C274.406 476.994 271.056 477.044 267.729 476.73C267.729 476.73 233.771 394.364 243.117 373.925C252.463 353.487 310.455 344.209 310.455 344.209L312.927 338.084L342.927 333.865L347.884 370.602C347.884 370.602 342.961 371.078 335.555 372.031C315.695 374.549 277.903 380.504 268.92 389.577Z" fill="#263238"/>
<mask id="mask4_2_142" style="mask-type:luminance" maskUnits="userSpaceOnUse" x="241" y="333" width="107" height="144">
<path d="M268.92 389.577C264.032 394.556 287.725 472.794 287.725 472.794C285.139 475.062 281.329 476.106 277.722 476.582C274.406 476.994 271.056 477.044 267.729 476.73C267.729 476.73 233.771 394.364 243.117 373.925C252.463 353.487 310.455 344.209 310.455 344.209L312.928 338.084L342.927 333.865L347.884 370.602C347.884 370.602 342.961 371.078 335.555 372.031C315.695 374.549 277.903 380.504 268.92 389.577Z" fill="white"/>
</mask>
<g mask="url(#mask4_2_142)">
<path opacity="0.3" d="M287.725 472.839C285.139 475.108 281.329 476.151 277.722 476.627C271.132 452.129 254.357 386.753 260.709 378.757C268.546 368.889 307.336 359.918 307.336 359.918C307.495 354.882 321.094 350.345 321.094 350.345L335.544 371.997C315.684 374.549 277.892 380.481 268.909 389.623C264.032 394.602 287.725 472.839 287.725 472.839Z" fill="black"/>
</g>
<path d="M268.92 389.577C264.032 394.556 287.725 472.794 287.725 472.794C285.139 475.062 281.329 476.106 277.722 476.582C274.406 476.994 271.056 477.044 267.729 476.73C267.729 476.73 233.771 394.364 243.117 373.925C252.463 353.487 310.455 344.209 310.455 344.209L312.927 338.084L342.927 333.865L347.884 370.602C347.884 370.602 342.961 371.078 335.555 372.031C315.695 374.549 277.903 380.504 268.92 389.577Z" stroke="#263238" stroke-linecap="round" stroke-linejoin="round"/>
<path d="M252.134 315.525C247.155 314.674 282.599 283.597 282.599 283.597L299.691 295.098C299.691 295.098 270.61 315.582 266.039 316.137C261.469 316.693 252.134 315.525 252.134 315.525Z" fill="white"/>
<mask id="mask5_2_142" style="mask-type:luminance" maskUnits="userSpaceOnUse" x="251" y="283" width="49" height="34">
<path d="M252.134 315.525C247.155 314.674 282.599 283.597 282.599 283.597L299.691 295.098C299.691 295.098 270.61 315.582 266.039 316.137C261.469 316.693 252.134 315.525 252.134 315.525Z" fill="white"/>
</mask>
<g mask="url(#mask5_2_142)">
<path opacity="0.2" d="M252.134 315.525C247.155 314.674 282.599 283.597 282.599 283.597L299.691 295.098C299.691 295.098 270.61 315.582 266.039 316.137C261.469 316.693 252.134 315.525 252.134 315.525Z" fill="black" fill-opacity="0.7"/>
</g>
<path d="M252.134 315.525C247.155 314.674 282.599 283.597 282.599 283.597L299.691 295.098C299.691 295.098 270.61 315.582 266.039 316.137C261.469 316.693 252.134 315.525 252.134 315.525Z" stroke="#263238" stroke-linecap="round" stroke-linejoin="round"/>
<path d="M258.361 302.459C258.361 302.459 265.79 304.308 268.07 305.861C270.349 307.415 269.692 313.03 269.692 313.03C269.692 313.03 259.79 310.239 258.361 302.459Z" fill="white" stroke="#263238" stroke-linecap="round" stroke-linejoin="round"/>
<path d="M253.62 288.236L267.423 314.72H269.068L255.945 286.92L253.62 288.236Z" fill="#263238"/>
<path d="M266.073 307.381C266.073 307.381 257.363 301.188 255.23 301.188C253.098 301.188 246.713 308.731 246.713 312.531C246.713 316.33 260.641 318.406 263.363 315.196C264.724 313.597 262.024 309.74 262.024 309.74C263.644 311.468 265.384 313.079 267.23 314.561C268.365 315.196 270.531 314.368 270.531 314.368C270.531 314.368 267.627 309.718 266.073 307.381Z" fill="white" stroke="#263238" stroke-linecap="round" stroke-linejoin="round"/>
<path d="M262.024 316.069C260.014 313.521 257.549 311.368 254.754 309.718" stroke="#263238" stroke-linecap="round" stroke-linejoin="round"/>
<path d="M262.024 309.718C262.024 309.718 259.007 307.086 256.977 306.508" stroke="#263238" stroke-linecap="round" stroke-linejoin="round"/>
<path d="M252.531 313.064C254.641 314.143 256.676 315.363 258.622 316.716" stroke="#263238" stroke-linecap="round" stroke-linejoin="round"/>
<path d="M293.703 270.009C289.245 273.117 269.227 293.703 269.227 293.703C269.227 293.703 278.606 304.376 286.829 305.918L309.117 295.098L293.703 270.009Z" fill="#0077C0" stroke="#263238" stroke-linecap="round" stroke-linejoin="round"/>
<path opacity="0.4" d="M293.703 270.009C289.245 273.117 269.227 293.703 269.227 293.703C269.227 293.703 278.606 304.376 286.829 305.918L309.117 295.098L293.703 270.009Z" fill="white" stroke="#263238" stroke-linecap="round" stroke-linejoin="round"/>
<path d="M282.939 464.537L292.387 489.387C292.387 489.387 293.952 495.773 265.461 493.754L249.764 492.416L282.939 464.537Z" fill="#0077C0"/>
<mask id="mask6_2_142" style="mask-type:luminance" maskUnits="userSpaceOnUse" x="249" y="464" width="44" height="31">
<path d="M282.939 464.537L292.387 489.387C292.387 489.387 293.952 495.773 265.461 493.754L249.764 492.416L282.939 464.537Z" fill="white"/>
</mask>
<g mask="url(#mask6_2_142)">
<path opacity="0.3" d="M282.939 464.537L292.387 489.387C292.387 489.387 293.952 495.773 265.461 493.754L249.764 492.416L282.939 464.537Z" fill="black"/>
</g>
<path d="M282.939 464.537L292.387 489.387C292.387 489.387 293.952 495.773 265.461 493.754L249.764 492.416L282.939 464.537Z" stroke="#263238" stroke-linecap="round" stroke-linejoin="round"/>
<path d="M279.355 476.423C279.355 476.423 281.374 486.075 279.355 493.255C279.355 493.255 249.287 497.962 242.561 496.17C235.835 494.378 231.752 491.021 231.548 489.365C231.548 489.365 231.786 484.76 238.524 483.41C245.261 482.06 258.656 481.142 263.952 473.542C269.249 465.943 279.355 476.423 279.355 476.423Z" fill="#0077C0" stroke="#263238" stroke-linecap="round" stroke-linejoin="round"/>
<path d="M319.03 337.086C328.636 323.385 372.802 339.876 372.802 339.876C372.802 339.876 377.01 372.859 359.419 381.66C341.827 390.462 316.466 389.985 309.616 397.12L281.737 479.44C281.737 479.44 271.722 483.626 257.159 477.036C257.159 477.036 274.864 414.87 280.058 392.798C285.196 370.953 318.462 356.129 318.462 356.129C316.75 354.103 315.451 351.76 314.64 349.233" fill="#263238"/>
<path d="M319.03 337.086C328.636 323.385 372.802 339.876 372.802 339.876C372.802 339.876 377.01 372.859 359.419 381.66C341.827 390.462 316.466 389.985 309.616 397.12L281.737 479.44C281.737 479.44 271.722 483.626 257.159 477.036C257.159 477.036 274.864 414.87 280.058 392.798C285.196 370.953 318.462 356.129 318.462 356.129C316.75 354.103 315.451 351.76 314.64 349.233" stroke="#263238" stroke-linecap="round" stroke-linejoin="round"/>
<path d="M363.74 368.617C362.333 369.869 360.852 371.036 359.305 372.11" stroke="white" stroke-linecap="round" stroke-linejoin="round"/>
<path d="M367.358 340.682C370.965 348.508 371.248 358.443 366.224 365.691" stroke="white" stroke-linecap="round" stroke-linejoin="round"/>
<path d="M357.298 341.94C357.298 341.94 356.379 347.974 359.067 350.368C361.755 352.761 370.001 353.974 370.001 353.974" stroke="white" stroke-linecap="round" stroke-linejoin="round"/>
<path d="M321.094 342.213C321.094 342.213 321.468 348.224 319.03 347.94C316.591 347.657 316.466 350.345 316.466 350.345" stroke="white" stroke-linecap="round" stroke-linejoin="round"/>
<path d="M294.293 274.637C293.921 273.122 293.723 271.569 293.703 270.009C293.703 270.009 307.313 258.531 324.837 258.599C345.706 258.667 358.466 265.234 363.57 274.353C371.668 288.78 372.802 339.876 372.802 339.876C372.802 339.876 320.436 347.952 312.928 338.05C311.623 336.326 312.621 324.156 312.621 324.156C312.621 324.156 306.757 308.776 305.521 296.844C305.521 296.844 303.253 293.805 300.723 289.472C298.861 286.348 297.246 283.082 295.892 279.707" fill="#0077C0"/>
<path d="M294.293 274.637C293.921 273.122 293.723 271.569 293.703 270.009C293.703 270.009 307.313 258.531 324.837 258.599C345.706 258.667 358.466 265.234 363.57 274.353C371.668 288.78 372.802 339.876 372.802 339.876C372.802 339.876 320.436 347.952 312.928 338.05C311.623 336.326 312.621 324.156 312.621 324.156C312.621 324.156 306.757 308.776 305.521 296.844C305.521 296.844 303.253 293.805 300.723 289.472C298.861 286.348 297.246 283.082 295.892 279.707" stroke="#263238" stroke-linecap="round" stroke-linejoin="round"/>
<g opacity="0.6">
<path d="M294.293 274.637C293.921 273.122 293.723 271.569 293.703 270.009C293.703 270.009 307.313 258.531 324.837 258.599C345.706 258.667 358.466 265.234 363.57 274.353C371.668 288.78 372.802 339.876 372.802 339.876C372.802 339.876 320.436 347.952 312.928 338.05C311.623 336.326 312.621 324.156 312.621 324.156C312.621 324.156 306.757 308.776 305.521 296.844C305.521 296.844 303.253 293.805 300.723 289.472C298.861 286.348 297.246 283.082 295.892 279.707" fill="white"/>
<path d="M294.293 274.637C293.921 273.122 293.723 271.569 293.703 270.009C293.703 270.009 307.313 258.531 324.837 258.599C345.706 258.667 358.466 265.234 363.57 274.353C371.668 288.78 372.802 339.876 372.802 339.876C372.802 339.876 320.436 347.952 312.928 338.05C311.623 336.326 312.621 324.156 312.621 324.156C312.621 324.156 306.757 308.776 305.521 296.844C305.521 296.844 303.253 293.805 300.723 289.472C298.861 286.348 297.246 283.082 295.892 279.707" stroke="#263238" stroke-linecap="round" stroke-linejoin="round"/>
</g>
<path d="M314.345 286.92C314.345 286.92 322.341 317.941 321.15 324.769C320.872 327.125 321.265 329.511 322.285 331.653C321.241 332.753 320.57 334.153 320.367 335.655C320.163 337.158 320.437 338.686 321.15 340.024" stroke="#263238" stroke-linecap="round" stroke-linejoin="round"/>
<path d="M335.555 312.587C334.127 312.533 332.739 312.094 331.54 311.317L329.169 300.928C333.872 301.357 338.614 301.024 343.211 299.941L345.751 311.283C344.323 311.682 342.873 311.996 341.407 312.224" stroke="#263238" stroke-linecap="round" stroke-linejoin="round"/>
<path d="M308.663 290.958C308.663 290.958 301.858 261.968 319.03 258.599C336.201 255.23 339.729 263.249 338.719 268.682C337.37 275.93 323.135 293.703 323.135 293.703L314.345 286.897L308.663 290.958Z" fill="#0077C0" stroke="#263238" stroke-linecap="round" stroke-linejoin="round"/>
<path opacity="0.4" d="M308.663 290.958C308.663 290.958 301.858 261.968 319.03 258.599C336.201 255.23 339.729 263.249 338.719 268.682C337.37 275.93 323.135 293.703 323.135 293.703L314.345 286.897L308.663 290.958Z" fill="white" stroke="#263238" stroke-linecap="round" stroke-linejoin="round"/>
<path d="M286.138 380.503C286.138 380.503 297.23 367.698 322.273 358.024C322.273 358.024 315.786 356.039 314.334 353.339" stroke="white" stroke-linecap="round" stroke-linejoin="round"/>
<path d="M273.094 419.69L262.943 456.507" stroke="white" stroke-linecap="round" stroke-linejoin="round"/>
<path d="M351.445 313.585C351.445 313.585 355.982 321.241 374.662 320.538C371.185 316.817 366.787 314.078 361.914 312.599C354.281 310.557 351.445 313.585 351.445 313.585Z" fill="#0077C0" stroke="#263238" stroke-linecap="round" stroke-linejoin="round"/>
<path d="M278.969 316.659C278.969 316.659 283.302 309.945 287.272 308.595C291.241 307.245 302.901 307.132 304.704 307.086C306.508 307.041 338.549 315.185 353.589 320.198L352.273 295.098L372.485 296.697C372.485 296.697 371.668 327.321 368.526 335.43C365.385 343.54 360.882 341.566 353.203 338.254C322.999 325.245 305.306 316.183 303.661 316.704C302.016 317.226 278.969 316.659 278.969 316.659Z" fill="white" stroke="#263238" stroke-linecap="round" stroke-linejoin="round"/>
<path d="M347.226 280.512C346.698 282.593 346.529 284.748 346.727 286.886C347.623 294.735 351.445 313.585 351.445 313.585C351.445 313.585 370.284 316.273 374.662 320.538C374.662 320.538 377.77 295.585 371.441 282.916C365.112 270.247 358.568 268.852 358.568 268.852C354.428 267.831 350.629 271.688 348.53 276.644" fill="#0077C0"/>
<path d="M347.226 280.512C346.698 282.593 346.529 284.748 346.727 286.886C347.623 294.735 351.445 313.585 351.445 313.585C351.445 313.585 370.284 316.273 374.662 320.538C374.662 320.538 377.77 295.585 371.441 282.916C365.112 270.247 358.568 268.852 358.568 268.852C354.428 267.831 350.629 271.688 348.53 276.644" stroke="#263238" stroke-linecap="round" stroke-linejoin="round"/>
<g opacity="0.4">
<path d="M347.226 280.512C346.698 282.593 346.529 284.748 346.727 286.886C347.623 294.735 351.445 313.585 351.445 313.585C351.445 313.585 370.284 316.273 374.662 320.538C374.662 320.538 377.77 295.585 371.441 282.916C365.112 270.247 358.568 268.852 358.568 268.852C354.428 267.831 350.629 271.688 348.53 276.644" fill="white"/>
<path d="M347.226 280.512C346.698 282.593 346.529 284.748 346.727 286.886C347.623 294.735 351.445 313.585 351.445 313.585C351.445 313.585 370.284 316.273 374.662 320.538C374.662 320.538 377.77 295.585 371.441 282.916C365.112 270.247 358.568 268.852 358.568 268.852C354.428 267.831 350.629 271.688 348.53 276.644" stroke="#263238" stroke-linecap="round" stroke-linejoin="round"/>
</g>
<path d="M291.877 290.221C294.695 292.531 297.986 294.196 301.517 295.098" stroke="#263238" stroke-linecap="round" stroke-linejoin="round"/>
<path d="M351.445 290.221C351.445 290.221 358.25 303.083 366.848 305.918" stroke="#263238" stroke-linecap="round" stroke-linejoin="round"/>
<path d="M307.347 389.294C307.347 389.294 308.606 390.246 309.117 393.683" stroke="white" stroke-linecap="round" stroke-linejoin="round"/>
<path d="M302.686 393.683C303.781 393.802 304.841 394.148 305.795 394.698C306.75 395.249 307.58 395.992 308.232 396.881" stroke="white" stroke-linecap="round" stroke-linejoin="round"/>
<path d="M265.166 380.504C265.166 380.504 268.796 382.341 268.013 387.547" stroke="white" stroke-linecap="round" stroke-linejoin="round"/>
<path d="M261.344 384.927C261.344 384.927 266.3 387.865 266.652 390.496" stroke="white" stroke-linecap="round" stroke-linejoin="round"/>
<path d="M318.791 353.192C318.791 353.192 329.827 354.734 332.3 353.192" stroke="white" stroke-linecap="round" stroke-linejoin="round"/>
<path d="M314.345 285.673C313.396 282.97 313.01 280.102 313.211 277.245C313.256 276.276 313.358 275.31 313.517 274.353L311.6 271.313L309.139 267.4L311.986 256.058C311.986 256.058 330.133 259.552 331.494 264.61C332.856 269.669 314.345 285.673 314.345 285.673Z" fill="white"/>
<mask id="mask7_2_142" style="mask-type:luminance" maskUnits="userSpaceOnUse" x="309" y="256" width="23" height="30">
<path d="M314.345 285.673C313.396 282.97 313.01 280.102 313.211 277.245C313.256 276.276 313.358 275.31 313.517 274.353L311.6 271.313L309.139 267.4L311.986 256.058C311.986 256.058 330.133 259.552 331.494 264.61C332.856 269.669 314.345 285.673 314.345 285.673Z" fill="white"/>
</mask>
<g mask="url(#mask7_2_142)">
<path opacity="0.2" d="M313.188 277.291C313.233 276.321 313.336 275.356 313.495 274.398L311.578 271.359C315.033 270.826 318.18 269.062 320.436 266.391C320.531 268.74 319.882 271.059 318.58 273.016C317.278 274.974 315.391 276.47 313.188 277.291Z" fill="black" fill-opacity="0.7"/>
</g>
<path d="M314.345 285.673C313.396 282.97 313.01 280.102 313.211 277.245C313.256 276.276 313.358 275.31 313.517 274.353L311.6 271.313L309.139 267.4L311.986 256.058C311.986 256.058 330.133 259.552 331.494 264.61C332.856 269.669 314.345 285.673 314.345 285.673Z" stroke="#263238" stroke-linecap="round" stroke-linejoin="round"/>
<path d="M325.733 257.011C331.404 242.266 327.638 217.166 300.417 221.975C284.448 224.811 282.519 244.115 287.85 252.69C293.181 261.264 287.521 261.537 295.54 267.888C298.795 270.463 301.415 274.829 305.294 275.113C309.911 275.431 315.82 271.064 320.232 266.346" fill="white"/>
<path d="M325.733 257.011C331.404 242.266 327.638 217.166 300.417 221.975C284.448 224.811 282.519 244.115 287.85 252.69C293.181 261.264 287.521 261.537 295.54 267.888C298.795 270.463 301.415 274.829 305.294 275.113C309.911 275.431 315.82 271.064 320.232 266.346" stroke="#263238" stroke-linecap="round" stroke-linejoin="round"/>
<path d="M298.909 252.69C298.909 252.69 302.924 249.038 307.699 250.546" stroke="#263238" stroke-linecap="round" stroke-linejoin="round"/>
<path d="M291.389 252.69C290.85 251.742 290.1 250.932 289.197 250.322C288.294 249.713 287.263 249.32 286.183 249.174" stroke="#263238" stroke-linecap="round" stroke-linejoin="round"/>
<path d="M294.043 258.009C294.043 258.009 293.465 260.947 292.705 263.918C291.945 266.89 297.468 265.268 297.241 264.814" fill="white"/>
<path d="M294.043 258.009C294.043 258.009 293.465 260.947 292.705 263.918C291.945 266.89 297.468 265.268 297.241 264.814" stroke="#263238" stroke-linecap="round" stroke-linejoin="round"/>
<path d="M300.088 268.523C302.43 267.852 304.514 266.488 306.066 264.61" stroke="#263238" stroke-linecap="round" stroke-linejoin="round"/>
<path d="M304.5 256.421C304.593 256.587 304.646 256.771 304.657 256.96C304.667 257.15 304.635 257.339 304.561 257.513C304.488 257.688 304.376 257.844 304.233 257.969C304.091 258.093 303.921 258.184 303.738 258.234C303.556 258.284 303.364 258.291 303.178 258.255C302.991 258.22 302.816 258.143 302.664 258.029C302.512 257.916 302.388 257.769 302.302 257.601C302.215 257.432 302.168 257.246 302.164 257.056C302.071 256.891 302.018 256.707 302.007 256.518C301.997 256.328 302.029 256.139 302.103 255.964C302.176 255.79 302.289 255.634 302.431 255.509C302.574 255.384 302.743 255.294 302.926 255.244C303.109 255.194 303.3 255.187 303.487 255.222C303.673 255.258 303.848 255.335 304 255.449C304.152 255.562 304.276 255.709 304.363 255.877C304.449 256.046 304.496 256.232 304.5 256.421Z" fill="#263238"/>
<path d="M292.387 256.172C292.614 256.988 292.455 257.76 292.024 257.873C291.593 257.987 291.06 257.419 290.89 256.591C290.72 255.763 290.833 255.004 291.264 254.89C291.695 254.777 292.137 255.344 292.387 256.172Z" fill="#263238"/>
<path d="M308.946 237.503C308.946 237.503 304.727 248.539 294.292 248.289C294.292 248.289 297.911 245.533 298.909 242.902C298.909 242.902 290.879 250.841 282.86 246.803C274.841 242.765 278.777 223.983 291.083 216.565C303.389 209.148 315.978 211.132 320.243 218.221C320.243 218.221 328.863 217.427 332.663 230.096C336.065 241.438 330.621 258.633 325.302 258.826C317.056 259.132 315.4 250.183 315.4 250.183C311.995 246.722 309.741 242.293 308.946 237.503Z" fill="#263238" stroke="#263238" stroke-linecap="round" stroke-linejoin="round"/>
<path d="M317.986 257.068C317.986 257.068 317.725 246.656 323.657 247.915C329.589 249.174 325.29 261.208 320.833 261.083" fill="white"/>
<path d="M317.986 257.068C317.986 257.068 317.725 246.656 323.657 247.915C329.589 249.174 325.29 261.208 320.833 261.083" stroke="#263238" stroke-linecap="round" stroke-linejoin="round"/>
<path d="M299.669 315.536H208.218C207.197 315.536 206.369 316.364 206.369 317.385V320.572C206.369 321.593 207.197 322.421 208.218 322.421H299.669C300.69 322.421 301.517 321.593 301.517 320.572V317.385C301.517 316.364 300.69 315.536 299.669 315.536Z" fill="#FFB81C" stroke="#263238" stroke-linecap="round" stroke-linejoin="round"/>
<path d="M73.247 454.068H34.6727L38.7104 489.331H69.2092L73.247 454.068Z" fill="#003555" stroke="#003555" stroke-linecap="round" stroke-linejoin="round"/>
<path d="M77.8179 429.524C77.8179 429.524 60.9749 430.851 60.2717 443.282C60.2717 443.282 77.3302 451.13 77.8179 429.524Z" fill="#FFC035" stroke="#003555" stroke-linecap="round" stroke-linejoin="round"/>
<path d="M44.4949 432.609C44.4949 432.609 35.081 419.883 19.8713 426.405C19.8713 426.405 29.1604 441.751 44.4949 432.609Z" fill="#FFC035" stroke="#003555" stroke-linecap="round" stroke-linejoin="round"/>
<path d="M21.1643 392.435C21.1643 392.435 18.4535 416.912 40.7407 410.174C40.7407 410.174 33.6632 392.174 21.1643 392.435Z" fill="#FFC035" stroke="#003555" stroke-linecap="round" stroke-linejoin="round"/>
<path d="M48.5327 378.802C48.5327 378.802 30.9071 388.307 43.8711 402.734C43.8597 402.734 56.2113 392.424 48.5327 378.802Z" fill="#FFC035" stroke="#003555" stroke-linecap="round" stroke-linejoin="round"/>
<path d="M70.2073 400.681C70.2073 400.681 51.0392 398.742 51.0392 416.481C51.0392 416.481 70.2073 417.24 70.2073 400.681Z" fill="#FFC035" stroke="#003555" stroke-linecap="round" stroke-linejoin="round"/>
<path d="M52.1394 468.597C52.1394 468.597 60.8728 450.268 52.491 431.599C44.1093 412.93 41.2624 397.199 45.6858 386.118" stroke="#003555" stroke-linecap="round" stroke-linejoin="round"/>
<path d="M63.9125 405.456C63.9125 405.456 52.423 409.993 48.5327 421.845" stroke="#003555" stroke-linecap="round" stroke-linejoin="round"/>
<path d="M27.2209 402.224C27.2209 402.224 33.8561 411.297 45.096 410.288" stroke="#003555" stroke-linecap="round" stroke-linejoin="round"/>
<path d="M27.2209 429.013C27.2209 429.013 45.5951 434.299 52.8994 432.575" stroke="#003555" stroke-linecap="round" stroke-linejoin="round"/>
<path d="M72.351 435.116C72.351 435.116 64.128 444.189 55.871 443.996" stroke="#003555" stroke-linecap="round" stroke-linejoin="round"/>
<path d="M33.0167 458.265H74.903V453.285H33.0167V458.265Z" fill="#003555" stroke="#003555" stroke-linecap="round" stroke-linejoin="round"/>
<path d="M378.859 421.335C369.066 427.73 360.849 436.261 354.825 446.287C344.833 462.96 336.916 486.416 349.211 489.387L360.904 488.945L383.407 481.221L381.048 476.684C381.048 476.684 361.347 487.13 357.978 487.13C354.61 487.13 350.22 487.97 348.371 486.62C346.523 485.27 354.848 454.953 372.666 444.847C390.484 434.741 378.859 421.335 378.859 421.335Z" fill="#D8586A"/>
<mask id="mask8_2_142" style="mask-type:luminance" maskUnits="userSpaceOnUse" x="342" y="421" width="42" height="69">
<path d="M378.859 421.335C369.066 427.73 360.849 436.261 354.825 446.287C344.833 462.96 336.916 486.416 349.211 489.387L360.904 488.945L383.407 481.221L381.048 476.684C381.048 476.684 361.347 487.13 357.978 487.13C354.61 487.13 350.22 487.97 348.371 486.62C346.523 485.27 354.848 454.953 372.666 444.847C390.484 434.741 378.859 421.335 378.859 421.335Z" fill="white"/>
</mask>
<g mask="url(#mask8_2_142)">
<path opacity="0.5" d="M378.859 421.335C369.066 427.73 360.849 436.261 354.825 446.287C344.833 462.96 336.916 486.416 349.211 489.387L360.904 488.945L383.407 481.221L381.048 476.684C381.048 476.684 361.347 487.13 357.978 487.13C354.61 487.13 350.22 487.97 348.371 486.62C346.523 485.27 354.848 454.953 372.666 444.847C390.484 434.741 378.859 421.335 378.859 421.335Z" fill="black" fill-opacity="0.7"/>
</g>
<path d="M378.859 421.335C369.066 427.73 360.849 436.261 354.825 446.287C344.833 462.96 336.916 486.416 349.211 489.387L360.904 488.945L383.407 481.221L381.048 476.684C381.048 476.684 361.347 487.13 357.978 487.13C354.61 487.13 350.22 487.97 348.371 486.62C346.523 485.27 354.848 454.953 372.666 444.847C390.484 434.741 378.859 421.335 378.859 421.335Z" stroke="#263238" stroke-linecap="round" stroke-linejoin="round"/>
<path d="M391.664 410.401C391.664 410.401 391.664 405.513 399.07 404.844C406.477 404.174 407.532 411.309 407.532 411.309H404.98C404.98 411.309 405.036 407.033 399.592 406.704C394.148 406.375 394.352 411.309 394.352 411.309L391.664 410.401Z" fill="#D8586A" stroke="#263238" stroke-linecap="round" stroke-linejoin="round"/>
<path d="M380.708 489.387C365.044 489.387 368.016 419.146 369.819 415.664C371.623 412.182 417.07 410.447 421.55 411.921C426.031 413.395 443.996 483.376 434.083 488.968L380.708 489.387Z" fill="#D8586A"/>
<mask id="mask9_2_142" style="mask-type:luminance" maskUnits="userSpaceOnUse" x="368" y="411" width="70" height="79">
<path d="M380.708 489.387C365.044 489.387 368.016 419.146 369.819 415.664C371.623 412.182 417.07 410.447 421.55 411.921C426.031 413.395 443.996 483.376 434.083 488.968L380.708 489.387Z" fill="white"/>
</mask>
<g mask="url(#mask9_2_142)">
<path opacity="0.2" d="M380.708 489.387C365.044 489.387 368.016 419.146 369.819 415.664C371.623 412.182 417.07 410.447 421.55 411.921C426.031 413.395 443.996 483.376 434.083 488.968L380.708 489.387Z" fill="black" fill-opacity="0.7"/>
</g>
<path d="M380.708 489.387C365.044 489.387 368.016 419.146 369.819 415.664C371.623 412.182 417.07 410.447 421.55 411.921C426.031 413.395 443.996 483.376 434.083 488.968L380.708 489.387Z" stroke="#263238" stroke-linecap="round" stroke-linejoin="round"/>
<path d="M369.819 415.584C375.49 416.798 378.757 439.788 386.39 445.641C394.023 451.493 430.012 450.234 434.083 445.641C438.155 441.047 430.193 415.256 424.409 411.309C418.624 407.362 414.507 411.195 398.231 409.392C374.107 406.704 369.819 415.584 369.819 415.584Z" fill="#D8586A" stroke="#263238" stroke-linecap="round" stroke-linejoin="round"/>
<path d="M411.127 428.798L417.796 434.242C417.888 434.32 417.964 434.416 418.018 434.524C418.072 434.632 418.105 434.749 418.113 434.87C418.122 434.99 418.106 435.111 418.067 435.225C418.028 435.339 417.967 435.445 417.887 435.535L412.692 441.138C412.61 441.221 412.512 441.288 412.404 441.333C412.296 441.378 412.18 441.401 412.063 441.401C411.946 441.401 411.83 441.378 411.722 441.333C411.614 441.288 411.516 441.221 411.433 441.138L404.821 434.945C404.732 434.863 404.662 434.763 404.613 434.651C404.565 434.54 404.54 434.42 404.54 434.299C404.54 434.178 404.565 434.058 404.613 433.946C404.662 433.835 404.732 433.735 404.821 433.652L409.959 428.877C410.112 428.726 410.314 428.635 410.528 428.62C410.743 428.606 410.955 428.669 411.127 428.798Z" fill="#D8586A"/>
<mask id="mask10_2_142" style="mask-type:luminance" maskUnits="userSpaceOnUse" x="404" y="428" width="15" height="14">
<path d="M411.127 428.798L417.796 434.242C417.888 434.32 417.964 434.416 418.018 434.524C418.072 434.632 418.105 434.749 418.113 434.87C418.122 434.99 418.106 435.111 418.067 435.225C418.028 435.339 417.967 435.445 417.887 435.535L412.692 441.138C412.61 441.221 412.512 441.288 412.404 441.333C412.296 441.378 412.18 441.401 412.063 441.401C411.946 441.401 411.83 441.378 411.722 441.333C411.614 441.288 411.516 441.221 411.433 441.138L404.821 434.945C404.732 434.863 404.662 434.763 404.613 434.651C404.565 434.54 404.54 434.42 404.54 434.299C404.54 434.178 404.565 434.058 404.613 433.946C404.662 433.835 404.732 433.735 404.821 433.652L409.959 428.877C410.112 428.726 410.314 428.635 410.528 428.62C410.743 428.606 410.955 428.669 411.127 428.798Z" fill="white"/>
</mask>
<g mask="url(#mask10_2_142)">
<path opacity="0.2" d="M411.127 428.798L417.796 434.242C417.888 434.32 417.964 434.416 418.018 434.524C418.072 434.632 418.105 434.749 418.113 434.87C418.122 434.99 418.106 435.111 418.067 435.225C418.028 435.339 417.967 435.445 417.887 435.535L412.692 441.138C412.61 441.221 412.512 441.288 412.404 441.333C412.296 441.378 412.18 441.401 412.063 441.401C411.946 441.401 411.83 441.378 411.722 441.333C411.614 441.288 411.516 441.221 411.433 441.138L404.821 434.945C404.732 434.863 404.662 434.763 404.613 434.651C404.565 434.54 404.54 434.42 404.54 434.299C404.54 434.178 404.565 434.058 404.613 433.946C404.662 433.835 404.732 433.735 404.821 433.652L409.959 428.877C410.112 428.726 410.314 428.635 410.528 428.62C410.743 428.606 410.955 428.669 411.127 428.798Z" fill="black" fill-opacity="0.7"/>
</g>
<path d="M411.127 428.798L417.796 434.242C417.888 434.32 417.964 434.416 418.018 434.524C418.072 434.632 418.105 434.749 418.113 434.87C418.122 434.99 418.106 435.111 418.067 435.225C418.028 435.339 417.967 435.445 417.887 435.535L412.692 441.138C412.61 441.221 412.512 441.288 412.404 441.333C412.296 441.378 412.18 441.401 412.063 441.401C411.946 441.401 411.83 441.378 411.722 441.333C411.614 441.288 411.516 441.221 411.433 441.138L404.821 434.945C404.732 434.863 404.662 434.763 404.613 434.651C404.565 434.54 404.54 434.42 404.54 434.299C404.54 434.178 404.565 434.058 404.613 433.946C404.662 433.835 404.732 433.735 404.821 433.652L409.959 428.877C410.112 428.726 410.314 428.635 410.528 428.62C410.743 428.606 410.955 428.669 411.127 428.798Z" stroke="#263238" stroke-linecap="round" stroke-linejoin="round"/>
<path d="M389.135 457.391C389.135 457.391 419.282 459.875 434.083 456.042C436.063 457.601 437.536 459.713 438.314 462.11C439.664 466.147 442.476 479.962 434.083 483.501C425.69 487.039 395.52 486.359 391.494 482.367C387.468 478.374 389.135 457.391 389.135 457.391Z" fill="#D8586A"/>
<mask id="mask11_2_142" style="mask-type:luminance" maskUnits="userSpaceOnUse" x="388" y="456" width="52" height="30">
<path d="M389.135 457.391C389.135 457.391 419.282 459.875 434.083 456.042C436.063 457.601 437.536 459.713 438.314 462.11C439.664 466.147 442.476 479.962 434.083 483.501C425.69 487.039 395.52 486.359 391.494 482.367C387.468 478.374 389.135 457.391 389.135 457.391Z" fill="white"/>
</mask>
<g mask="url(#mask11_2_142)">
<path opacity="0.4" d="M389.135 457.391C389.135 457.391 419.282 459.875 434.083 456.042C436.063 457.601 437.536 459.713 438.314 462.11C439.664 466.147 442.476 479.962 434.083 483.501C425.69 487.039 395.52 486.359 391.494 482.367C387.468 478.374 389.135 457.391 389.135 457.391Z" fill="black" fill-opacity="0.7"/>
</g>
<path d="M389.135 457.391C389.135 457.391 419.282 459.875 434.083 456.042C436.063 457.601 437.536 459.713 438.314 462.11C439.664 466.147 442.476 479.962 434.083 483.501C425.69 487.039 395.52 486.359 391.494 482.367C387.468 478.374 389.135 457.391 389.135 457.391Z" stroke="#263238" stroke-linecap="round" stroke-linejoin="round"/>
<path d="M389.135 457.391C389.135 457.391 392.674 466.93 394.522 468.393C396.371 469.856 435.535 469.856 439.891 466.318C444.246 462.779 438.28 456.382 434.095 456.042C434.083 456.042 406.647 459.24 389.135 457.391Z" fill="#D8586A" stroke="#263238" stroke-linecap="round" stroke-linejoin="round"/>
<path d="M376.5 455.361C376.5 455.361 377.509 475.402 379.528 479.951C378.029 480.731 376.364 481.138 374.674 481.138C372.984 481.138 371.318 480.731 369.819 479.951C364.715 477.251 365.555 459.989 366.564 460.034C367.574 460.079 376.5 455.361 376.5 455.361Z" fill="#D8586A"/>
<mask id="mask12_2_142" style="mask-type:luminance" maskUnits="userSpaceOnUse" x="365" y="455" width="15" height="27">
<path d="M376.5 455.361C376.5 455.361 377.509 475.402 379.528 479.951C378.029 480.731 376.364 481.138 374.674 481.138C372.984 481.138 371.318 480.731 369.819 479.951C364.715 477.251 365.555 459.989 366.564 460.034C367.574 460.079 376.5 455.361 376.5 455.361Z" fill="white"/>
</mask>
<g mask="url(#mask12_2_142)">
<path opacity="0.4" d="M376.5 455.361C376.5 455.361 377.509 475.402 379.528 479.951C378.029 480.731 376.364 481.138 374.674 481.138C372.984 481.138 371.318 480.731 369.819 479.951C364.715 477.251 365.555 459.989 366.564 460.034C367.574 460.079 376.5 455.361 376.5 455.361Z" fill="black" fill-opacity="0.7"/>
</g>
<path d="M376.5 455.361C376.5 455.361 377.509 475.402 379.528 479.951C378.029 480.731 376.364 481.138 374.674 481.138C372.984 481.138 371.318 480.731 369.819 479.951C364.715 477.251 365.555 459.989 366.564 460.034C367.574 460.079 376.5 455.361 376.5 455.361Z" stroke="#263238" stroke-linecap="round" stroke-linejoin="round"/>
<path d="M376.5 455.361L368.912 456.881C368.912 456.881 361.676 462.439 364.874 464.287C368.073 466.136 376.318 461.599 376.5 455.361Z" fill="#D8586A" stroke="#263238" stroke-linecap="round" stroke-linejoin="round"/>
</g>
<defs>
<clipPath id="clip0_2_142">
<rect width="460" height="506.514" fill="white"/>
</clipPath>
</defs>
</svg>
