<svg width="95" height="24" viewBox="0 0 95 24" fill="none" xmlns="http://www.w3.org/2000/svg">
<path d="M16.201 3.54545V21H13.7805L4.90838 8.19886H4.74645V21H2.11293V3.54545H4.55043L13.4311 16.3636H13.593V3.54545H16.201ZM45.4489 3.54545H48.6449L54.2017 17.1136H54.4062L59.9631 3.54545H63.1591V21H60.6534V8.36932H60.4915L55.3438 20.9744H53.2642L48.1165 8.36079H47.9545V21H45.4489V3.54545ZM66.9879 21V3.54545H73.2095C74.5618 3.54545 75.6839 3.77841 76.576 4.24432C77.4737 4.71023 78.1442 5.35511 78.5874 6.17898C79.0305 6.99716 79.2521 7.94318 79.2521 9.01705C79.2521 10.0852 79.0277 11.0256 78.5788 11.8381C78.1357 12.6449 77.4652 13.2727 76.5675 13.7216C75.6754 14.1705 74.5533 14.3949 73.201 14.3949H68.4879V12.1278H72.9624C73.8146 12.1278 74.5078 12.0057 75.0419 11.7614C75.5817 11.517 75.9766 11.1619 76.2266 10.696C76.4766 10.2301 76.6016 9.67045 76.6016 9.01705C76.6016 8.35795 76.4737 7.78693 76.218 7.30398C75.968 6.82102 75.5732 6.4517 75.0334 6.19602C74.4993 5.93466 73.7976 5.80398 72.9283 5.80398H69.6214V21H66.9879ZM75.6044 13.125L79.9169 21H76.9169L72.6896 13.125H75.6044ZM82.4567 21V3.54545H93.3999V5.8125H85.0902V11.1307H92.8288V13.3892H85.0902V18.733H93.5021V21H82.4567Z" fill="#0077C0"/>
<path d="M41 12C41 14.381 40.1504 16.6839 38.6041 18.4945C37.0577 20.305 34.9161 21.5044 32.5643 21.8769C30.2126 22.2494 27.8052 21.7705 25.775 20.5264C23.7449 19.2823 22.2252 17.3547 21.4894 15.0902C20.7537 12.8257 20.85 10.373 21.7612 8.17317C22.6724 5.97338 24.3386 4.1709 26.4601 3.08994C28.5816 2.00897 31.0192 1.72046 33.3345 2.2763C35.6497 2.83214 37.6906 4.19585 39.0902 6.12215L31 12H41Z" fill="#FFC035"/>
</svg>
