<svg width="16" height="16" viewBox="0 0 16 16" fill="none" xmlns="http://www.w3.org/2000/svg">
<path fill-rule="evenodd" clip-rule="evenodd" d="M2.11454 1.44772C1.3335 2.22877 1.3335 3.48585 1.3335 6V8.66667C1.3335 11.1808 1.3335 12.4379 2.11454 13.219C2.89559 14 4.15267 14 6.66683 14H9.3335C11.8477 14 13.1047 14 13.8858 13.219C14.6668 12.4379 14.6668 11.1808 14.6668 8.66667V6C14.6668 3.48585 14.6668 2.22877 13.8858 1.44772C13.1047 0.666672 11.8477 0.666672 9.3335 0.666672H6.66683C4.15267 0.666672 2.89559 0.666672 2.11454 1.44772ZM8.33846 10.4815L8.3335 10.4841V4.85518L8.34812 4.84695C8.71699 4.63352 9.3125 4.31571 9.80016 4.18053C10.1604 4.08066 10.6272 4.03465 11.038 4.01447C11.5748 3.98811 12.0002 4.43029 12.0002 4.9677V8.60721C12.0002 9.16246 11.5473 9.61004 10.9936 9.65133C10.6561 9.67649 10.2918 9.71886 10.0002 9.79013C9.44246 9.92639 8.74512 10.2673 8.33846 10.4815ZM4.00016 4.99767V8.60721C4.00016 9.16246 4.45305 9.61004 5.00677 9.65133C5.34421 9.67649 5.70848 9.71886 6.00016 9.79013C6.55787 9.92639 7.25521 10.2673 7.66187 10.4815L7.66683 10.4841V4.87397C7.65891 4.87017 7.65104 4.86622 7.64322 4.86212C7.23415 4.6474 6.54943 4.31474 6.00016 4.18053C5.70411 4.10819 5.33327 4.06563 4.99161 4.04061C4.44375 4.0005 4.00016 4.44834 4.00016 4.99767Z" fill="#FFB81C"/>
</svg>
