<svg width="20" height="20" viewBox="0 0 20 20" fill="none" xmlns="http://www.w3.org/2000/svg">
<path d="M17.6615 2.33854C18.5574 3.23436 18.5574 4.68679 17.6615 5.58262L17.2486 5.99557C17.1283 5.96954 16.9769 5.9299 16.8043 5.87003C16.3424 5.70976 15.7353 5.40689 15.1642 4.83584C14.5932 4.26478 14.2903 3.65769 14.1301 3.19575C14.0702 3.02317 14.0305 2.87174 14.0045 2.75149L14.4175 2.33854C15.3133 1.44271 16.7657 1.44271 17.6615 2.33854Z" fill="#5B5B5B"/>
<path d="M12.1501 11.094C11.8135 11.4307 11.6451 11.599 11.4595 11.7438C11.2406 11.9146 11.0037 12.061 10.753 12.1805C10.5405 12.2817 10.3146 12.357 9.86294 12.5076L7.48099 13.3016C7.2587 13.3757 7.01363 13.3178 6.84795 13.1521C6.68227 12.9864 6.62441 12.7414 6.69851 12.5191L7.49249 10.1371C7.64306 9.68544 7.71834 9.45959 7.81961 9.2471C7.93908 8.99643 8.08549 8.75952 8.25627 8.54057C8.40105 8.35496 8.56938 8.18662 8.90606 7.84994L13.0028 3.75321C13.2226 4.3317 13.6078 5.04719 14.2804 5.71972C14.9529 6.39225 15.6684 6.77747 16.2469 6.99729L12.1501 11.094Z" fill="#5B5B5B"/>
<path d="M17.113 17.1129C18.3334 15.8926 18.3334 13.9284 18.3334 10C18.3334 8.70979 18.3334 7.63145 18.2902 6.72175L12.9884 12.0236C12.6957 12.3164 12.4758 12.5364 12.2283 12.7294C11.9377 12.9561 11.6234 13.1504 11.2908 13.3089C11.0074 13.4439 10.7123 13.5422 10.3195 13.673L7.87628 14.4874C7.20481 14.7112 6.46454 14.5365 5.96407 14.036C5.46359 13.5355 5.28884 12.7953 5.51266 12.1238L6.32704 9.68061C6.45788 9.28779 6.55618 8.99265 6.69121 8.70932C6.84973 8.3767 7.04402 8.06233 7.27063 7.77179C7.46366 7.52431 7.68368 7.3044 7.97652 7.0117L13.2783 1.7099C12.3686 1.66667 11.2903 1.66667 10.0001 1.66667C6.07171 1.66667 4.10752 1.66667 2.88714 2.88705C1.66675 4.10744 1.66675 6.07163 1.66675 10C1.66675 13.9284 1.66675 15.8926 2.88714 17.1129C4.10753 18.3333 6.07171 18.3333 10.0001 18.3333C13.9285 18.3333 15.8926 18.3333 17.113 17.1129Z" fill="#5B5B5B"/>
</svg>
